<svg width="180" height="156" viewBox="0 0 180 156" fill="none" xmlns="http://www.w3.org/2000/svg">
<g opacity="0.1">
<path d="M146.383 25.4071C140.531 28.7997 135.515 29.948 132.567 28.0429C129.619 26.1379 129.281 21.5318 131.115 15.5425C119.337 14.0811 104.656 20.7097 94.5507 33.0796C92.7907 35.2326 91.2801 37.4378 89.9747 39.6821C88.6694 37.4378 87.1587 35.2326 85.3987 33.0796C75.2934 20.7097 60.6121 14.0811 48.8347 15.5425C50.6681 21.5318 50.3307 26.1379 47.3827 28.0429C44.4347 29.948 39.4187 28.8128 33.5667 25.4071C28.3601 34.9194 30.9121 49.3901 41.0174 61.76C42.7274 63.8556 44.6151 65.8317 46.6641 67.671C43.8627 68.0755 41.0321 68.6757 38.1867 69.4978C21.8627 74.2213 10.2467 84.5948 8.16406 95.0074C15.1307 95.3206 19.9561 97.0169 21.0854 100.096C22.2147 103.176 19.4427 107.077 14.0014 110.966C22.5667 118.312 38.8174 120.621 55.1707 115.898C58.0161 115.076 60.7001 114.084 63.2374 112.949C62.8121 115.441 62.5774 118.025 62.5774 120.687C62.5774 135.979 70.0721 149.015 80.5734 153.999C83.0521 148.193 86.3667 144.644 90.0041 144.644C93.6414 144.644 96.9561 148.193 99.4347 153.999C109.936 149.028 117.431 135.993 117.431 120.687C117.431 118.025 117.181 115.428 116.756 112.936C119.293 114.071 121.977 115.076 124.837 115.898C141.191 120.621 157.441 118.312 166.007 110.966C160.565 107.064 157.793 103.176 158.923 100.096C160.052 97.0169 164.863 95.3075 171.844 95.0074C169.776 84.5817 158.145 74.2213 141.792 69.4978C138.947 68.6757 136.116 68.0755 133.329 67.671C135.378 65.8317 137.266 63.8556 138.976 61.76C149.052 49.3771 151.589 34.9194 146.383 25.4071Z" stroke="url(#paint0_linear_1522_10795)" stroke-width="3" stroke-miterlimit="10" stroke-linecap="round" stroke-linejoin="round"/>
<path d="M178 65.4414C170.505 65.1152 165.313 63.2754 164.111 59.9611C162.908 56.6468 165.885 52.4582 171.723 48.2697C162.512 40.3624 145.029 37.8832 127.444 42.972C124.393 43.8593 121.489 44.9293 118.776 46.1428C119.231 43.4679 119.495 40.6886 119.495 37.831C119.495 21.3769 111.443 7.34985 100.149 2C97.48 8.25019 93.916 12.0603 90 12.0603C86.084 12.0603 82.52 8.25019 79.8507 2C68.5573 7.34985 60.5053 21.3769 60.5053 37.831C60.5053 40.6886 60.7547 43.4679 61.224 46.1428C58.496 44.9293 55.6067 43.8593 52.556 42.972C34.9707 37.8832 17.488 40.3754 8.27733 48.2697C14.1293 52.4582 17.1067 56.6598 15.8893 59.9611C14.6867 63.2754 9.49467 65.1152 2 65.4414C4.22933 76.65 16.7253 87.8064 34.3253 92.8823C37.376 93.7695 40.4267 94.4089 43.4333 94.8526C41.292 96.7837 39.2533 98.8976 37.3613 101.207C26.4933 114.517 23.7507 130.083 29.3533 140.313C35.6453 136.66 41.0427 135.433 44.2107 137.482C47.3787 139.53 47.7453 144.476 45.78 150.935C58.452 152.514 74.2333 145.376 85.1013 132.067C86.9933 129.744 88.6213 127.356 90.0147 124.942C91.408 127.356 93.036 129.744 94.928 132.067C105.796 145.376 121.577 152.514 134.249 150.935C132.284 144.489 132.651 139.53 135.819 137.482C138.987 135.433 144.384 136.66 150.676 140.313C156.279 130.083 153.536 114.517 142.668 101.207C140.776 98.8976 138.737 96.7707 136.596 94.8526C139.603 94.4089 142.653 93.7695 145.704 92.8823C163.275 87.7934 175.771 76.65 178 65.4414Z" stroke="url(#paint1_linear_1522_10795)" stroke-width="3" stroke-miterlimit="10" stroke-linecap="round" stroke-linejoin="round"/>
</g>
<defs>
<linearGradient id="paint0_linear_1522_10795" x1="36.2966" y1="96.5559" x2="179.647" y2="32.9206" gradientUnits="userSpaceOnUse">
<stop stop-color="#C64783"/>
<stop offset="1" stop-color="#A21837"/>
</linearGradient>
<linearGradient id="paint1_linear_1522_10795" x1="32.25" y1="89.3599" x2="186.41" y2="20.9528" gradientUnits="userSpaceOnUse">
<stop stop-color="#C64783"/>
<stop offset="1" stop-color="#A21837"/>
</linearGradient>
</defs>
</svg>
