<svg width="136" height="121" viewBox="0 0 136 121" fill="none" xmlns="http://www.w3.org/2000/svg">
<g opacity="0.1">
<path d="M110.285 20.0184C105.896 22.6298 102.134 23.5136 99.9231 22.0472C97.7121 20.5808 97.4591 17.0354 98.8341 12.4253C90.0011 11.3003 78.9901 16.4026 71.4111 25.9242C70.0911 27.5814 68.9581 29.2788 67.9791 31.0063C67.0001 29.2788 65.8671 27.5814 64.5471 25.9242C56.9681 16.4026 45.9571 11.3003 37.1241 12.4253C38.4991 17.0354 38.2461 20.5808 36.0351 22.0472C33.8241 23.5136 30.0621 22.6398 25.6731 20.0184C21.7681 27.3403 23.6821 38.479 31.2611 48.0005C32.5436 49.6135 33.9594 51.1346 35.4961 52.5504C33.3951 52.8617 31.2721 53.3237 29.1381 53.9565C16.8951 57.5924 8.18309 65.5772 6.62109 73.5922C11.8461 73.8332 15.4651 75.1389 16.3121 77.5093C17.1591 79.8796 15.0801 82.8827 10.9991 85.8758C17.4231 91.5305 29.6111 93.3082 41.8761 89.6724C44.0101 89.0396 46.0231 88.2763 47.9261 87.4025C47.6071 89.3208 47.4311 91.3095 47.4311 93.3584C47.4311 105.13 53.0521 115.164 60.9281 119C62.7871 114.531 65.2731 111.799 68.0011 111.799C70.7291 111.799 73.2151 114.531 75.0741 119C82.9501 115.174 88.5711 105.14 88.5711 93.3584C88.5711 91.3095 88.3841 89.3108 88.0651 87.3924C89.9681 88.2662 91.9811 89.0396 94.1261 89.6724C106.391 93.3082 118.579 91.5305 125.003 85.8758C120.922 82.8727 118.843 79.8796 119.69 77.5093C120.537 75.1389 124.145 73.8232 129.381 73.5922C127.83 65.5672 119.107 57.5924 106.842 53.9565C104.708 53.3237 102.585 52.8617 100.495 52.5504C102.032 51.1346 103.448 49.6135 104.73 48.0005C112.287 38.4689 114.19 27.3403 110.285 20.0184Z" stroke="url(#paint0_linear_1522_10805)" stroke-width="2.3" stroke-miterlimit="10" stroke-linecap="round" stroke-linejoin="round"/>
<path d="M134 50.8331C128.379 50.582 124.485 49.1658 123.583 46.6147C122.681 44.0636 124.914 40.8395 129.292 37.6154C122.384 31.5289 109.272 29.6205 96.083 33.5376C93.795 34.2206 91.617 35.0442 89.582 35.9783C89.923 33.9193 90.121 31.78 90.121 29.5804C90.121 16.9151 84.082 6.11797 75.612 2C73.61 6.81099 70.937 9.74379 68 9.74379C65.063 9.74379 62.39 6.81099 60.388 2C51.918 6.11797 45.879 16.9151 45.879 29.5804C45.879 31.78 46.066 33.9193 46.418 35.9783C44.372 35.0442 42.205 34.2206 39.917 33.5376C26.728 29.6205 13.616 31.5389 6.708 37.6154C11.097 40.8395 13.33 44.0736 12.417 46.6147C11.515 49.1658 7.621 50.582 2 50.8331C3.672 59.4608 13.044 68.0482 26.244 71.9553C28.532 72.6383 30.82 73.1304 33.075 73.4719C31.469 74.9584 29.94 76.5855 28.521 78.3632C20.37 88.608 18.313 100.59 22.515 108.465C27.234 105.652 31.282 104.708 33.658 106.285C36.034 107.862 36.309 111.669 34.835 116.64C44.339 117.856 56.175 112.362 64.326 102.117C65.745 100.329 66.966 98.4911 68.011 96.633C69.056 98.4911 70.277 100.329 71.696 102.117C79.847 112.362 91.683 117.856 101.187 116.64C99.713 111.679 99.988 107.862 102.364 106.285C104.74 104.708 108.788 105.652 113.507 108.465C117.709 100.59 115.652 88.608 107.501 78.3632C106.082 76.5855 104.553 74.9483 102.947 73.4719C105.202 73.1304 107.49 72.6383 109.778 71.9553C122.956 68.0382 132.328 59.4608 134 50.8331Z" stroke="url(#paint1_linear_1522_10805)" stroke-width="2.3" stroke-miterlimit="10" stroke-linecap="round" stroke-linejoin="round"/>
</g>
<defs>
<linearGradient id="paint0_linear_1522_10805" x1="27.7205" y1="74.7841" x2="136.137" y2="27.8905" gradientUnits="userSpaceOnUse">
<stop stop-color="#C64783"/>
<stop offset="1" stop-color="#A21837"/>
</linearGradient>
<linearGradient id="paint1_linear_1522_10805" x1="24.6875" y1="69.244" x2="141.279" y2="18.8343" gradientUnits="userSpaceOnUse">
<stop stop-color="#C64783"/>
<stop offset="1" stop-color="#A21837"/>
</linearGradient>
</defs>
</svg>
