<svg width="270" height="243" viewBox="0 0 270 243" fill="none" xmlns="http://www.w3.org/2000/svg">
<g opacity="0.1">
<path d="M220.209 38.8054C211.365 44.1398 203.784 45.9453 199.328 42.9498C194.873 39.9543 194.363 32.7118 197.134 23.2946C179.334 20.9967 157.145 31.4193 141.872 50.8693C139.212 54.2546 136.929 57.722 134.956 61.2509C132.983 57.722 130.7 54.2546 128.04 50.8693C112.767 31.4193 90.5786 20.9967 72.7787 23.2946C75.5496 32.7118 75.0397 39.9543 70.5842 42.9498C66.1287 45.9453 58.5477 44.1603 49.7032 38.8054C41.8341 53.7622 45.6911 76.5155 60.9639 95.9655C63.5483 99.2606 66.4014 102.368 69.4981 105.26C65.2642 105.896 60.9861 106.84 56.6857 108.132C32.0142 115.559 14.4582 131.87 11.3105 148.243C21.8397 148.735 29.1326 151.402 30.8394 156.244C32.5462 161.086 28.3567 167.221 20.1329 173.335C33.0782 184.886 57.6389 188.517 82.3547 181.09C86.6551 179.798 90.7116 178.238 94.5464 176.453C93.9036 180.372 93.5489 184.435 93.5489 188.62C93.5489 212.666 104.876 233.162 120.747 241C124.494 231.87 129.503 226.289 135.001 226.289C140.498 226.289 145.508 231.87 149.254 241C165.125 233.183 176.452 212.686 176.452 188.62C176.452 184.435 176.075 180.352 175.433 176.433C179.267 178.218 183.324 179.798 187.646 181.09C212.362 188.517 236.923 184.886 249.868 173.335C241.644 167.2 237.455 161.086 239.162 156.244C240.869 151.402 248.139 148.715 258.691 148.243C255.565 131.85 237.987 115.559 213.271 108.132C208.971 106.84 204.693 105.896 200.481 105.26C203.578 102.368 206.431 99.2606 209.015 95.9655C224.244 76.495 228.078 53.7622 220.209 38.8054Z" stroke="url(#paint0_linear_1576_10253)" stroke-width="3" stroke-miterlimit="10" stroke-linecap="round" stroke-linejoin="round"/>
<path d="M268 101.753C256.673 101.24 248.826 98.3475 247.008 93.1362C245.191 87.9249 249.69 81.339 258.513 74.753C244.592 62.3198 218.169 58.4216 191.592 66.4232C186.981 67.8183 182.592 69.5007 178.491 71.4088C179.178 67.2028 179.577 62.8327 179.577 58.3395C179.577 32.4676 167.408 10.4119 150.339 2C146.305 11.8276 140.919 17.8186 135 17.8186C129.082 17.8186 123.695 11.8276 119.661 2C102.592 10.4119 90.4228 32.4676 90.4228 58.3395C90.4228 62.8327 90.7997 67.2028 91.509 71.4088C87.386 69.5007 83.0192 67.8183 78.4085 66.4232C51.8307 58.4216 25.408 62.3403 11.4873 74.753C20.3318 81.339 24.8317 87.9454 22.9918 93.1362C21.1742 98.3475 13.3272 101.24 2 101.753C5.36933 119.377 24.2553 136.919 50.8553 144.9C55.466 146.296 60.0767 147.301 64.6208 147.998C61.3845 151.035 58.3033 154.359 55.4438 157.99C39.0183 178.917 34.8732 203.394 43.3408 219.479C52.8503 213.735 61.0077 211.806 65.7957 215.027C70.5837 218.248 71.1378 226.024 68.1675 236.18C87.3195 238.663 111.171 227.44 127.596 206.513C130.456 202.861 132.916 199.106 135.022 195.311C137.128 199.106 139.589 202.861 142.448 206.513C158.874 227.44 182.725 238.663 201.877 236.18C198.906 226.045 199.461 218.248 204.249 215.027C209.037 211.806 217.194 213.735 226.703 219.479C235.171 203.394 231.026 178.917 214.6 157.99C211.741 154.359 208.66 151.014 205.423 147.998C209.968 147.301 214.578 146.296 219.189 144.9C245.745 136.899 264.631 119.377 268 101.753Z" stroke="url(#paint1_linear_1576_10253)" stroke-width="3" stroke-miterlimit="10" stroke-linecap="round" stroke-linejoin="round"/>
</g>
<defs>
<linearGradient id="paint0_linear_1576_10253" x1="53.829" y1="150.677" x2="273.232" y2="57.0602" gradientUnits="userSpaceOnUse">
<stop stop-color="#C64783"/>
<stop offset="1" stop-color="#A21837"/>
</linearGradient>
<linearGradient id="paint1_linear_1576_10253" x1="47.7187" y1="139.362" x2="283.664" y2="38.7254" gradientUnits="userSpaceOnUse">
<stop stop-color="#C64783"/>
<stop offset="1" stop-color="#A21837"/>
</linearGradient>
</defs>
</svg>
