<svg width="65" height="65" viewBox="0 0 65 65" fill="none" xmlns="http://www.w3.org/2000/svg">
<g clip-path="url(#clip0_1473_10053)">
<path fill-rule="evenodd" clip-rule="evenodd" d="M65 32.5C65 50.4493 50.4493 65 32.5 65C14.5507 65 0 50.4493 0 32.5C0 14.5507 14.5507 0 32.5 0C50.4493 0 65 14.5507 65 32.5ZM1.56258 32.5C1.56258 49.5863 15.4137 63.4374 32.5 63.4374C49.5863 63.4374 63.4374 49.5863 63.4374 32.5C63.4374 15.4137 49.5863 1.56258 32.5 1.56258C15.4137 1.56258 1.56258 15.4137 1.56258 32.5ZM60 32.5C60 47.6878 47.6878 60 32.5 60C17.3122 60 5 47.6878 5 32.5C5 17.3122 17.3122 5 32.5 5C47.6878 5 60 17.3122 60 32.5ZM6.32218 32.5C6.32218 46.9576 18.0424 58.6778 32.5 58.6778C46.9576 58.6778 58.6778 46.9576 58.6778 32.5C58.6778 18.0424 46.9576 6.32218 32.5 6.32218C18.0424 6.32218 6.32218 18.0424 6.32218 32.5ZM19.5 32.1686C19.5 24.5963 25.4344 18.5 32.7035 18.5C39.9726 18.5 45.907 24.5963 45.907 32.1686C45.907 35.7011 44.6155 38.9124 42.4995 41.3334L42.4509 41.2967L42.3933 41.2535C42.0453 40.9933 41.5463 40.6348 40.9376 40.2381C39.7258 39.4483 38.0544 38.4902 36.2595 37.8618C35.8685 37.7249 35.4407 37.9309 35.3038 38.3219C35.1669 38.7128 35.3729 39.1407 35.7639 39.2775C37.4002 39.8504 38.9584 40.7386 40.1185 41.4947C40.6651 41.851 41.1178 42.1743 41.4419 42.4152C39.2858 44.3861 36.5049 45.6382 33.4535 45.8155V42.2616C33.4535 41.8474 33.1177 41.5116 32.7035 41.5116C32.2893 41.5116 31.9535 41.8474 31.9535 42.2616V45.8155C28.9021 45.6382 26.1212 44.3861 23.9651 42.4152C24.2892 42.1743 24.7419 41.851 25.2885 41.4947C26.4485 40.7386 28.0067 39.8504 29.6431 39.2775C30.0341 39.1407 30.24 38.7128 30.1032 38.3219C29.9663 37.9309 29.5384 37.7249 29.1475 37.8618C27.3526 38.4902 25.6811 39.4483 24.4694 40.2381C23.8607 40.6348 23.3617 40.9933 23.0137 41.2535C22.9765 41.2813 22.9411 41.3079 22.9074 41.3334C20.7915 38.9124 19.5 35.7011 19.5 32.1686ZM18 32.1686C18 40.5226 24.56 47.3372 32.7035 47.3372C40.847 47.3372 47.407 40.5226 47.407 32.1686C47.407 23.8146 40.847 17 32.7035 17C24.56 17 18 23.8146 18 32.1686ZM32.7035 27.1512C30.8288 27.1512 29.2674 28.7286 29.2674 30.7267C29.2674 32.7249 30.8288 34.3023 32.7035 34.3023C34.5782 34.3023 36.1395 32.7249 36.1395 30.7267C36.1395 28.7286 34.5782 27.1512 32.7035 27.1512ZM27.7674 30.7267C27.7674 27.9469 29.9544 25.6512 32.7035 25.6512C35.4526 25.6512 37.6395 27.9469 37.6395 30.7267C37.6395 33.5065 35.4526 35.8023 32.7035 35.8023C29.9544 35.8023 27.7674 33.5065 27.7674 30.7267ZM32.7035 40.8198C33.4741 40.8198 34.0988 40.1742 34.0988 39.3779C34.0988 38.5816 33.4741 37.936 32.7035 37.936C31.9329 37.936 31.3081 38.5816 31.3081 39.3779C31.3081 40.1742 31.9329 40.8198 32.7035 40.8198Z" fill="url(#paint0_linear_1473_10053)"/>
</g>
<defs>
<linearGradient id="paint0_linear_1473_10053" x1="11.1719" y1="38.0714" x2="70.8741" y2="15.6205" gradientUnits="userSpaceOnUse">
<stop stop-color="#C64783"/>
<stop offset="1" stop-color="#A21837"/>
</linearGradient>
<clipPath id="clip0_1473_10053">
<rect width="65" height="65" fill="white"/>
</clipPath>
</defs>
</svg>
