<svg width="65" height="66" viewBox="0 0 65 66" fill="none" xmlns="http://www.w3.org/2000/svg">
<path fill-rule="evenodd" clip-rule="evenodd" d="M65 32.707C65 50.6563 50.4493 65.207 32.5 65.207C14.5507 65.207 0 50.6563 0 32.707C0 14.7578 14.5507 0.207031 32.5 0.207031C50.4493 0.207031 65 14.7578 65 32.707ZM1.56258 32.707C1.56258 49.7933 15.4137 63.6445 32.5 63.6445C49.5863 63.6445 63.4374 49.7933 63.4374 32.707C63.4374 15.6208 49.5863 1.76961 32.5 1.76961C15.4137 1.76961 1.56258 15.6208 1.56258 32.707ZM60 32.7066C60 47.8944 47.6878 60.2066 32.5 60.2066C17.3122 60.2066 5 47.8944 5 32.7066C5 17.5188 17.3122 5.20661 32.5 5.20661C47.6878 5.20661 60 17.5188 60 32.7066ZM6.32218 32.7066C6.32218 47.1642 18.0424 58.8844 32.5 58.8844C46.9576 58.8844 58.6778 47.1642 58.6778 32.7066C58.6778 18.249 46.9576 6.52879 32.5 6.52879C18.0424 6.52879 6.32218 18.249 6.32218 32.7066ZM35.1037 32.2789C35.1037 31.0247 34.0939 29.9939 32.802 29.8749C32.7001 24.8103 32.265 17.7861 31.0574 17.7861C29.8011 17.7861 30.3092 25.3881 30.8519 30.4773C30.3291 30.9197 30 31.5629 30 32.2789C30 33.6129 31.1425 34.6943 32.5518 34.6943C32.6026 34.6943 32.653 34.6929 32.7031 34.6901C36.615 39.049 42.9262 45.6368 43.8997 44.8713C44.8489 44.1249 38.77 37.9227 34.4966 33.8428C34.8752 33.4214 35.1037 32.8754 35.1037 32.2789Z" fill="url(#paint0_linear_1480_10072)"/>
<defs>
<linearGradient id="paint0_linear_1480_10072" x1="11.1719" y1="38.2785" x2="70.8741" y2="15.8276" gradientUnits="userSpaceOnUse">
<stop stop-color="#C64783"/>
<stop offset="1" stop-color="#A21837"/>
</linearGradient>
</defs>
</svg>
