<svg width="66" height="66" viewBox="0 0 66 66" fill="none" xmlns="http://www.w3.org/2000/svg">
<path fill-rule="evenodd" clip-rule="evenodd" d="M65.5 32.8174C65.5 50.7666 50.9493 65.3174 33 65.3174C15.0507 65.3174 0.5 50.7666 0.5 32.8174C0.5 14.8681 15.0507 0.317383 33 0.317383C50.9493 0.317383 65.5 14.8681 65.5 32.8174ZM2.06258 32.8174C2.06258 49.9036 15.9137 63.7548 33 63.7548C50.0863 63.7548 63.9374 49.9036 63.9374 32.8174C63.9374 15.7311 50.0863 1.87996 33 1.87996C15.9137 1.87996 2.06258 15.7311 2.06258 32.8174ZM60.5 32.817C60.5 48.0048 48.1878 60.317 33 60.317C17.8122 60.317 5.5 48.0048 5.5 32.817C5.5 17.6291 17.8122 5.31696 33 5.31696C48.1878 5.31696 60.5 17.6291 60.5 32.817ZM6.82218 32.817C6.82218 47.2746 18.5424 58.9948 33 58.9948C47.4576 58.9948 59.1778 47.2746 59.1778 32.817C59.1778 18.3593 47.4576 6.63914 33 6.63914C18.5424 6.63914 6.82218 18.3593 6.82218 32.817ZM38.2533 19.5191V23.8349L39.3112 24.5207V23.4133V20.9261V20.5293L39.6392 20.306L43.2114 17.8747C42.6212 17.3432 41.9394 17.2088 41.2289 17.359C40.2911 17.5572 39.2166 18.277 38.2533 19.5191ZM44.5441 18.7821L40.8112 21.3228V22.233L42.5036 21.439L44.8383 20.2569L45.1851 20.0813L45.5285 20.2635L49.0389 22.1253C48.8984 21.0812 48.5703 20.376 48.0792 19.8929C47.4286 19.2528 46.3465 18.8576 44.5441 18.7821ZM49.3041 23.9639L45.1691 21.7708L44.3076 22.207L45.1652 22.7882L47.7167 24.4422L48.0587 24.6639V25.0715V25.0716V25.0718V25.0721V25.0724V25.0727V25.0732V25.0737V25.0743V25.0749V25.0757V25.0764V25.0773V25.0782V25.0792V25.0803V25.0814V25.0826V25.0838V25.0851V25.0865V25.088V25.0895V25.0911V25.0927V25.0944V25.0962V25.098V25.0999V25.1019V25.1039V25.106V25.1082V25.1104V25.1127V25.115V25.1174V25.1199V25.1225V25.125V25.1277V25.1304V25.1332V25.1361V25.139V25.1419V25.145V25.148V25.1512V25.1544V25.1577V25.161V25.1644V25.1678V25.1713V25.1749V25.1785V25.1822V25.186V25.1898V25.1936V25.1976V25.2015V25.2056V25.2097V25.2138V25.218V25.2223V25.2266V25.231V25.2354V25.2399V25.2445V25.2491V25.2537V25.2584V25.2632V25.268V25.2729V25.2778V25.2828V25.2879V25.293V25.2981V25.3033V25.3086V25.3139V25.3193V25.3247V25.3302V25.3357V25.3413V25.3469V25.3526V25.3583V25.3641V25.3699V25.3758V25.3818V25.3878V25.3938V25.3999V25.406V25.4122V25.4185V25.4248V25.4311V25.4375V25.444V25.4505V25.457V25.4636V25.4702V25.4769V25.4837V25.4905V25.4973V25.5042V25.5111V25.5181V25.5251V25.5322V25.5393V25.5465V25.5537V25.5609V25.5682V25.5756V25.583V25.5904V25.5979V25.6054V25.613V25.6206V25.6283V25.636V25.6438V25.6516V25.6594V25.6673V25.6752V25.6832V25.6912V25.6993V25.7074V25.7155V25.7237V25.732V25.7402V25.7486V25.7569V25.7653V25.7737V25.7822V25.7908V25.7993V25.8079V25.8166V25.8252V25.834V25.8427V25.8515V25.8604V25.8693V25.8782V25.8872V25.8962V25.9052V25.9143V25.9234V25.9325V25.9417V25.951V25.9602V25.9695V25.9789V25.9883V25.9977V26.0071V26.0166V26.0261V26.0357V26.0453V26.0549V26.0646V26.0743V26.084V26.0938V26.1036V26.1135V26.1233V26.1332V26.1432V26.1532V26.1632V26.1732V26.1833V26.1934V26.2036V26.2137V26.224V26.2342V26.2445V26.2548V26.2651V26.2755V26.2859V26.2963V26.3068V26.3173V26.3278V26.3384V26.3489V26.3596V26.3702V26.3809V26.3916V26.4023V26.4131V26.4239V26.4347V26.4456V26.4564V26.4674V26.4783V26.4893V26.5002V26.5113V26.5223V26.5334V26.5445V26.5556V26.5668V26.578V26.5892V26.6004V26.6117V26.6229V26.6342V26.6456V26.6569V26.6683V26.6797V26.6912V26.7026V26.7141V26.7256V26.7372V26.7487V26.7603V26.7719V26.7835V26.7952V26.8069V26.8185V26.8303V26.842V26.8538V26.8655V26.8773V26.8892V26.901V26.9129V26.9248V26.9367V26.9486V26.9606V26.9725V26.9845V26.9965V27.0086V27.0206V27.0327V27.0448V27.0569V27.069V27.0812V27.0933V27.1055V27.1177V27.1299V27.1422V27.1544V27.1667V27.179V27.1913V27.2036V27.2159V27.2283V27.2407V27.253V27.2654V27.2779V27.2903V27.3027V27.3152V27.3277V27.3402V27.3527V27.3652V27.3777V27.3903V27.4029V27.4154V27.428V27.4406V27.4532V27.4659V27.4785V27.4912V27.5038V27.5165V27.5292V27.5419V27.5546V27.5673V27.5801V27.5928V27.6056V27.6183V27.6311V27.6439V27.6567V27.6695V27.6823V27.6952V27.708V27.7209V27.7337V27.7466V27.7594V27.7723V27.7852V27.7981V27.811V27.8239V27.8369V27.8498V27.8627V27.8757V27.8886V27.9016V27.9145V27.9275V27.9405V27.9534V27.9664V27.9794V27.9924V28.0054V28.0184V28.0314V28.0445V28.0575V28.0705V28.0835V28.0966V28.1096V28.1226V28.1357V28.1487V28.1618V28.1748V28.1879V28.2009V28.214V28.2271V28.2401V28.2532V28.2662V28.2793V28.2924V28.3054V28.3185V28.3316V28.3447V28.3577V28.3708V28.3839V28.3969V28.41V28.4231V28.4361V28.4492V28.4623V28.4753V28.4884V28.5014V28.5145V28.5276V28.5406V28.5537V28.5667V28.5797V28.5928V28.6058V28.6189V28.6319V28.6449V28.6579V28.6709V28.684V28.697V28.71V28.723V28.736V28.749V28.7619V28.7749V28.7879V28.7986C49.0652 28.1985 49.6047 27.6398 49.8371 27.0641C50.1156 26.3743 50.0329 25.4463 49.3041 23.9639ZM46.5587 29.7422V29.7302V29.7182V29.7062V29.6942V29.6821V29.67V29.6579V29.6458V29.6337V29.6215V29.6094V29.5972V29.585V29.5727V29.5605V29.5482V29.536V29.5237V29.5114V29.499V29.4867V29.4743V29.462V29.4496V29.4372V29.4247V29.4123V29.3998V29.3874V29.3749V29.3624V29.3499V29.3374V29.3248V29.3123V29.2997V29.2871V29.2745V29.2619V29.2493V29.2367V29.224V29.2114V29.1987V29.186V29.1733V29.1606V29.1479V29.1352V29.1224V29.1097V29.0969V29.0841V29.0714V29.0586V29.0458V29.0329V29.0201V29.0073V28.9944V28.9816V28.9687V28.9559V28.943V28.9301V28.9172V28.9043V28.8914V28.8785V28.8656V28.8526V28.8397V28.8268V28.8138V28.8008V28.7879V28.7749V28.7619V28.749V28.736V28.723V28.71V28.697V28.684V28.6709V28.6579V28.6449V28.6319V28.6189V28.6058V28.5928V28.5797V28.5667V28.5537V28.5406V28.5276V28.5145V28.5014V28.4884V28.4753V28.4623V28.4492V28.4361V28.4231V28.41V28.3969V28.3839V28.3708V28.3577V28.3447V28.3316V28.3185V28.3054V28.2924V28.2793V28.2662V28.2532V28.2401V28.2271V28.214V28.2009V28.1879V28.1748V28.1618V28.1487V28.1357V28.1226V28.1096V28.0966V28.0835V28.0705V28.0575V28.0445V28.0314V28.0184V28.0054V27.9924V27.9794V27.9664V27.9534V27.9405V27.9275V27.9145V27.9016V27.8886V27.8757V27.8627V27.8498V27.8369V27.8239V27.811V27.7981V27.7852V27.7723V27.7594V27.7466V27.7337V27.7209V27.708V27.6952V27.6823V27.6695V27.6567V27.6439V27.6311V27.6183V27.6056V27.5928V27.5801V27.5673V27.5546V27.5419V27.5292V27.5165V27.5038V27.4912V27.4785V27.4659V27.4532V27.4406V27.428V27.4154V27.4029V27.3903V27.3777V27.3652V27.3527V27.3402V27.3277V27.3152V27.3027V27.2903V27.2779V27.2654V27.253V27.2407V27.2283V27.2159V27.2036V27.1913V27.179V27.1667V27.1544V27.1422V27.1299V27.1177V27.1055V27.0933V27.0812V27.069V27.0569V27.0448V27.0327V27.0206V27.0086V26.9965V26.9845V26.9725V26.9606V26.9486V26.9367V26.9248V26.9129V26.901V26.8892V26.8773V26.8655V26.8538V26.842V26.8303V26.8185V26.8069V26.7952V26.7835V26.7719V26.7603V26.7487V26.7372V26.7256V26.7141V26.7026V26.6912V26.6797V26.6683V26.6569V26.6456V26.6342V26.6229V26.6117V26.6004V26.5892V26.578V26.5668V26.5556V26.5445V26.5334V26.5223V26.5113V26.5002V26.4893V26.4783V26.4674V26.4564V26.4456V26.4347V26.4239V26.4131V26.4023V26.3916V26.3809V26.3702V26.3596V26.3489V26.3384V26.3278V26.3173V26.3068V26.2963V26.2859V26.2755V26.2651V26.2548V26.2445V26.2342V26.224V26.2137V26.2036V26.1934V26.1833V26.1732V26.1632V26.1532V26.1432V26.1332V26.1233V26.1135V26.1036V26.0938V26.084V26.0743V26.0646V26.0549V26.0453V26.0357V26.0261V26.0166V26.0071V25.9977V25.9883V25.9789V25.9695V25.9602V25.951V25.9417V25.9325V25.9234V25.9143V25.9052V25.8962V25.8872V25.8782V25.8693V25.8604V25.8515V25.8427V25.834V25.8252V25.8166V25.8079V25.7993V25.7908V25.7822V25.7737V25.7653V25.7569V25.7486V25.7402V25.732V25.7237V25.7155V25.7074V25.6993V25.6912V25.6832V25.6752V25.6673V25.6594V25.6516V25.6438V25.636V25.6283V25.6206V25.613V25.6054V25.5979V25.5904V25.583V25.5756V25.5682V25.5609V25.5537V25.5465V25.5393V25.5322V25.5251V25.5181V25.5111V25.5042V25.4973V25.4905V25.4837V25.4791L45.5008 24.7933V25.9006V28.8025V29.2204L45.1454 29.4402L41.7357 31.5501C42.7234 31.8635 43.5141 31.9375 44.1725 31.8012C45.0267 31.6245 45.8025 31.0608 46.5587 29.8376V29.8373V29.8255V29.8136V29.8018V29.7899V29.778V29.7661V29.7542V29.7422ZM39.8847 30.9315L44.0008 28.3846V27.0992L42.5622 27.7987L40.0429 29.4318L39.6556 29.6828L39.257 29.4503L39.6349 28.8025L39.2569 29.4503L39.2568 29.4502L39.2565 29.45L39.2551 29.4492L39.2495 29.4459L39.2274 29.433L39.1421 29.3832L38.825 29.1982L37.7497 28.5709L36.1609 27.6439C36.2274 28.5645 36.3893 29.1953 36.7247 29.6573C37.1501 30.2433 37.9868 30.7159 39.8847 30.9315ZM35.9416 25.7793L38.5056 27.2753L39.5809 27.9026L39.6142 27.9221L40.7622 27.1779L39.6833 26.5484L39.6681 26.5395L39.6533 26.5299L37.0954 24.8719L36.7533 24.6502V24.2425V20.6522C35.9759 21.2472 35.5362 21.8326 35.3434 22.4413C35.0858 23.2549 35.2118 24.2968 35.9416 25.7793ZM42.225 26.2948L44.0008 25.4313V23.8111L42.7647 22.9734L40.8112 23.8899V25.4699L42.225 26.2948ZM34.6221 26.4948C33.7939 24.8307 33.4837 23.3457 33.9134 21.9885C34.3422 20.6343 35.4479 19.5997 36.9946 18.6957C38.1105 17.2229 39.4936 16.1927 40.9186 15.8914C42.3384 15.5913 43.7079 16.0391 44.7115 17.2882C46.6149 17.381 48.1102 17.8191 49.1312 18.8236C50.1909 19.8662 50.5915 21.3712 50.6155 23.232C51.4357 24.8769 51.7546 26.3213 51.2281 27.6256C50.7181 28.8888 49.497 29.8 47.8368 30.6228C46.9434 32.0683 45.8659 32.9826 44.4764 33.2701C43.0994 33.555 41.571 33.188 39.8667 32.4384C37.746 32.2172 36.3306 31.6677 35.5108 30.5385C34.7383 29.4744 34.6291 28.0537 34.6221 26.4948ZM21.0326 24.7794V20.4637C21.9959 19.2215 23.0704 18.5018 24.0082 18.3035C24.7186 18.1533 25.4005 18.2877 25.9907 18.8193L22.4185 21.2506L22.0905 21.4738V21.8706V24.3579V25.4652L21.0326 24.7794ZM23.5905 22.2674L27.3234 19.7267C29.1258 19.8021 30.2079 20.1974 30.8585 20.8374C31.3496 21.3205 31.6777 22.0257 31.8182 23.0699L28.3078 21.208L27.9644 21.0259L27.6176 21.2015L25.2829 22.3836L23.5905 23.1775V22.2674ZM27.9484 22.7153L32.0834 24.9085C32.8122 26.3908 32.8949 27.3189 32.6164 28.0086C32.384 28.5843 31.8444 29.143 30.838 29.7431V29.7324V29.7194V29.7065V29.6935V29.6805V29.6675V29.6545V29.6415V29.6285V29.6155V29.6025V29.5894V29.5764V29.5634V29.5504V29.5373V29.5243V29.5112V29.4982V29.4851V29.4721V29.459V29.446V29.4329V29.4199V29.4068V29.3937V29.3807V29.3676V29.3545V29.3415V29.3284V29.3153V29.3023V29.2892V29.2761V29.263V29.25V29.2369V29.2238V29.2108V29.1977V29.1847V29.1716V29.1585V29.1455V29.1324V29.1194V29.1063V29.0933V29.0802V29.0672V29.0541V29.0411V29.0281V29.015V29.002V28.989V28.976V28.963V28.95V28.937V28.924V28.911V28.898V28.885V28.872V28.8591V28.8461V28.8331V28.8202V28.8073V28.7943V28.7814V28.7685V28.7556V28.7427V28.7298V28.7169V28.704V28.6911V28.6782V28.6654V28.6525V28.6397V28.6269V28.6141V28.6012V28.5884V28.5757V28.5629V28.5501V28.5374V28.5246V28.5119V28.4991V28.4864V28.4737V28.461V28.4484V28.4357V28.423V28.4104V28.3978V28.3852V28.3726V28.36V28.3474V28.3348V28.3223V28.3097V28.2972V28.2847V28.2722V28.2597V28.2473V28.2348V28.2224V28.21V28.1976V28.1852V28.1728V28.1605V28.1481V28.1358V28.1235V28.1112V28.099V28.0867V28.0745V28.0623V28.0501V28.0379V28.0257V28.0136V28.0014V27.9893V27.9772V27.9652V27.9531V27.9411V27.9291V27.9171V27.9051V27.8932V27.8812V27.8693V27.8574V27.8456V27.8337V27.8219V27.8101V27.7983V27.7865V27.7748V27.7631V27.7514V27.7397V27.7281V27.7164V27.7048V27.6933V27.6817V27.6702V27.6587V27.6472V27.6357V27.6243V27.6129V27.6015V27.5901V27.5788V27.5675V27.5562V27.5449V27.5337V27.5225V27.5113V27.5002V27.489V27.4779V27.4668V27.4558V27.4448V27.4338V27.4228V27.4119V27.401V27.3901V27.3792V27.3684V27.3576V27.3469V27.3361V27.3254V27.3147V27.3041V27.2935V27.2829V27.2723V27.2618V27.2513V27.2409V27.2304V27.22V27.2097V27.1993V27.189V27.1787V27.1685V27.1583V27.1481V27.138V27.1278V27.1178V27.1077V27.0977V27.0877V27.0778V27.0679V27.058V27.0481V27.0383V27.0286V27.0188V27.0091V26.9995V26.9898V26.9802V26.9707V26.9611V26.9517V26.9422V26.9328V26.9234V26.9141V26.9048V26.8955V26.8863V26.8771V26.8679V26.8588V26.8497V26.8407V26.8317V26.8227V26.8138V26.8049V26.7961V26.7873V26.7785V26.7698V26.7611V26.7525V26.7439V26.7353V26.7268V26.7183V26.7098V26.7014V26.6931V26.6848V26.6765V26.6683V26.6601V26.6519V26.6438V26.6358V26.6277V26.6198V26.6118V26.604V26.5961V26.5883V26.5806V26.5728V26.5652V26.5576V26.55V26.5424V26.535V26.5275V26.5201V26.5128V26.5055V26.4982V26.491V26.4838V26.4767V26.4696V26.4626V26.4556V26.4487V26.4418V26.435V26.4282V26.4215V26.4148V26.4081V26.4015V26.395V26.3885V26.3821V26.3757V26.3693V26.363V26.3568V26.3506V26.3444V26.3383V26.3323V26.3263V26.3204V26.3145V26.3086V26.3028V26.2971V26.2914V26.2858V26.2802V26.2747V26.2692V26.2638V26.2584V26.2531V26.2479V26.2427V26.2375V26.2324V26.2274V26.2224V26.2174V26.2126V26.2077V26.203V26.1982V26.1936V26.189V26.1844V26.18V26.1755V26.1711V26.1668V26.1626V26.1583V26.1542V26.1501V26.1461V26.1421V26.1382V26.1343V26.1305V26.1268V26.1231V26.1195V26.1159V26.1124V26.1089V26.1055V26.1022V26.0989V26.0957V26.0926V26.0895V26.0865V26.0835V26.0806V26.0777V26.075V26.0722V26.0696V26.067V26.0645V26.062V26.0596V26.0572V26.0549V26.0527V26.0506V26.0485V26.0464V26.0445V26.0426V26.0407V26.0389V26.0372V26.0356V26.034V26.0325V26.0311V26.0297V26.0283V26.0271V26.0259V26.0248V26.0237V26.0228V26.0218V26.021V26.0202V26.0195V26.0188V26.0182V26.0177V26.0173V26.0169V26.0166V26.0163V26.0162V26.0161L30.088 26.016H30.838V25.6084L30.496 25.3867L27.9445 23.7327L27.0869 23.1515L27.9484 22.7153ZM29.338 30.7818V30.7822C28.5818 32.0054 27.806 32.569 26.9518 32.7458C26.2934 32.882 25.5027 32.8081 24.515 32.4946L27.9247 30.3848L28.2801 30.1649V29.747V26.8451V25.7378L29.338 26.4236V26.4282V26.435V26.4418V26.4487V26.4556V26.4626V26.4696V26.4767V26.4838V26.491V26.4982V26.5055V26.5128V26.5201V26.5275V26.535V26.5424V26.55V26.5576V26.5652V26.5728V26.5806V26.5883V26.5961V26.604V26.6118V26.6198V26.6277V26.6358V26.6438V26.6519V26.6601V26.6683V26.6765V26.6848V26.6931V26.7014V26.7098V26.7183V26.7268V26.7353V26.7439V26.7525V26.7611V26.7698V26.7785V26.7873V26.7961V26.8049V26.8138V26.8227V26.8317V26.8407V26.8497V26.8588V26.8679V26.8771V26.8863V26.8955V26.9048V26.9141V26.9234V26.9328V26.9422V26.9517V26.9611V26.9707V26.9802V26.9898V26.9995V27.0091V27.0188V27.0286V27.0383V27.0481V27.058V27.0679V27.0778V27.0877V27.0977V27.1077V27.1178V27.1278V27.138V27.1481V27.1583V27.1685V27.1787V27.189V27.1993V27.2097V27.22V27.2304V27.2409V27.2513V27.2618V27.2723V27.2829V27.2935V27.3041V27.3147V27.3254V27.3361V27.3469V27.3576V27.3684V27.3792V27.3901V27.401V27.4119V27.4228V27.4338V27.4448V27.4558V27.4668V27.4779V27.489V27.5002V27.5113V27.5225V27.5337V27.5449V27.5562V27.5675V27.5788V27.5901V27.6015V27.6129V27.6243V27.6357V27.6472V27.6587V27.6702V27.6817V27.6933V27.7048V27.7164V27.7281V27.7397V27.7514V27.7631V27.7748V27.7865V27.7983V27.8101V27.8219V27.8337V27.8456V27.8574V27.8693V27.8812V27.8932V27.9051V27.9171V27.9291V27.9411V27.9531V27.9652V27.9772V27.9893V28.0014V28.0136V28.0257V28.0379V28.0501V28.0623V28.0745V28.0867V28.099V28.1112V28.1235V28.1358V28.1481V28.1605V28.1728V28.1852V28.1976V28.21V28.2224V28.2348V28.2473V28.2597V28.2722V28.2847V28.2972V28.3097V28.3223V28.3348V28.3474V28.36V28.3726V28.3852V28.3978V28.4104V28.423V28.4357V28.4484V28.461V28.4737V28.4864V28.4991V28.5119V28.5246V28.5374V28.5501V28.5629V28.5757V28.5884V28.6012V28.6141V28.6269V28.6397V28.6525V28.6654V28.6782V28.6911V28.704V28.7169V28.7298V28.7427V28.7556V28.7685V28.7814V28.7943V28.8073V28.8202V28.8331V28.8461V28.8591V28.872V28.885V28.898V28.911V28.924V28.937V28.95V28.963V28.976V28.989V29.002V29.015V29.0281V29.0411V29.0541V29.0672V29.0802V29.0933V29.1063V29.1194V29.1324V29.1455V29.1585V29.1716V29.1847V29.1977V29.2108V29.2238V29.2369V29.25V29.263V29.2761V29.2892V29.3023V29.3153V29.3284V29.3415V29.3545V29.3676V29.3807V29.3937V29.4068V29.4199V29.4329V29.446V29.459V29.4721V29.4851V29.4982V29.5112V29.5243V29.5373V29.5504V29.5634V29.5764V29.5894V29.6025V29.6155V29.6285V29.6415V29.6545V29.6675V29.6805V29.6935V29.7065V29.7194V29.7324V29.7454V29.7583V29.7713V29.7842V29.7972V29.8101V29.823V29.8359V29.8489V29.8618V29.8746V29.8875V29.9004V29.9133V29.9261V29.939V29.9518V29.9647V29.9775V29.9903V30.0031V30.0159V30.0287V30.0414V30.0542V30.067V30.0797V30.0924V30.1051V30.1178V30.1305V30.1432V30.1559V30.1686V30.1812V30.1938V30.2065V30.2191V30.2317V30.2442V30.2568V30.2694V30.2819V30.2944V30.3069V30.3194V30.3319V30.3444V30.3568V30.3693V30.3817V30.3941V30.4065V30.4189V30.4312V30.4436V30.4559V30.4682V30.4805V30.4928V30.505V30.5173V30.5295V30.5417V30.5539V30.5661V30.5782V30.5903V30.6025V30.6146V30.6266V30.6387V30.6507V30.6628V30.6747V30.6867V30.6987V30.7106V30.7225V30.7344V30.7463V30.7582V30.77V30.7818ZM26.7801 29.3291L22.664 31.876C20.7661 31.6604 19.9294 31.1879 19.504 30.6018C19.1686 30.1398 19.0067 29.509 18.9402 28.5884L20.529 29.5154L21.6043 30.1428L21.9214 30.3278L22.0067 30.3775L22.0288 30.3904L22.0344 30.3937L22.0358 30.3945L22.0361 30.3947L22.0362 30.3948L22.4142 29.747L22.0363 30.3948L22.4349 30.6274L22.8222 30.3763L25.3415 28.7432L26.7801 28.0438V29.3291ZM21.2849 28.2198L18.7209 26.7239C17.9911 25.2413 17.8651 24.1994 18.1227 23.3858C18.3155 22.7772 18.7552 22.1918 19.5326 21.5967V25.1871V25.5947L19.8747 25.8164L22.4326 27.4745L22.4474 27.484L22.4626 27.4929L23.5415 28.1225L22.3935 28.8666L22.3602 28.8471L21.2849 28.2198ZM26.7801 26.3758L25.0043 27.2393L23.5905 26.4144V24.8344L25.544 23.9179L26.7801 24.7556V26.3758ZM16.6927 22.933C16.263 24.2902 16.5732 25.7752 17.4014 27.4394C17.4084 28.9982 17.5176 30.4189 18.2901 31.483C19.1099 32.6123 20.5253 33.1617 22.646 33.3829C24.3503 34.1325 25.8787 34.4996 27.2557 34.2146C28.6452 33.9271 29.7227 33.0128 30.616 31.5673C32.2763 30.7445 33.4974 29.8333 34.0074 28.5701C34.5339 27.2658 34.215 25.8214 33.3948 24.1765C33.3708 22.3157 32.9702 20.8107 31.9105 19.7681C30.8895 18.7637 29.3942 18.3255 27.4908 18.2327C26.4872 16.9836 25.1177 16.5358 23.6979 16.836C22.2729 17.1372 20.8898 18.1675 19.7739 19.6402C18.2272 20.5443 17.1215 21.5788 16.6927 22.933ZM30.6029 38.9552V34.6394C31.5662 33.3973 32.6407 32.6775 33.5785 32.4793C34.289 32.3291 34.9708 32.4635 35.561 32.995L31.9888 35.4263L31.6609 35.6496V36.0463V38.5336V39.6409L30.6029 38.9552ZM33.1609 36.4431L36.8937 33.9024C38.6961 33.9778 39.7783 34.3731 40.4288 35.0132C40.9199 35.4963 41.248 36.2015 41.3885 37.2456L37.8781 35.3838L37.5347 35.2016L37.1879 35.3772L34.8532 36.5593L33.1609 37.3533V36.4431ZM41.6537 39.0842C42.3825 40.5666 42.4652 41.4946 42.1867 42.1844C41.9543 42.7601 41.4148 43.3188 40.4083 43.9189V43.9082V43.8952V43.8822V43.8692V43.8563V43.8433V43.8303V43.8173V43.8043V43.7912V43.7782V43.7652V43.7522V43.7391V43.7261V43.7131V43.7V43.687V43.6739V43.6609V43.6478V43.6348V43.6217V43.6087V43.5956V43.5826V43.5695V43.5564V43.5434V43.5303V43.5172V43.5042V43.4911V43.478V43.4649V43.4519V43.4388V43.4257V43.4127V43.3996V43.3865V43.3735V43.3604V43.3473V43.3343V43.3212V43.3082V43.2951V43.2821V43.269V43.256V43.2429V43.2299V43.2169V43.2038V43.1908V43.1778V43.1647V43.1517V43.1387V43.1257V43.1127V43.0997V43.0867V43.0737V43.0608V43.0478V43.0348V43.0219V43.0089V42.996V42.983V42.9701V42.9571V42.9442V42.9313V42.9184V42.9055V42.8926V42.8797V42.8669V42.854V42.8411V42.8283V42.8155V42.8026V42.7898V42.777V42.7642V42.7514V42.7386V42.7259V42.7131V42.7004V42.6876V42.6749V42.6622V42.6495V42.6368V42.6241V42.6115V42.5988V42.5862V42.5735V42.5609V42.5483V42.5357V42.5231V42.5106V42.498V42.4855V42.473V42.4605V42.448V42.4355V42.423V42.4106V42.3982V42.3857V42.3733V42.361V42.3486V42.3362V42.3239V42.3116V42.2993V42.287V42.2747V42.2625V42.2502V42.238V42.2258V42.2136V42.2015V42.1893V42.1772V42.1651V42.153V42.1409V42.1289V42.1168V42.1048V42.0928V42.0809V42.0689V42.057V42.0451V42.0332V42.0213V42.0095V41.9976V41.9858V41.9741V41.9623V41.9506V41.9388V41.9271V41.9155V41.9038V41.8922V41.8806V41.869V41.8575V41.8459V41.8344V41.8229V41.8115V41.8V41.7886V41.7772V41.7659V41.7545V41.7432V41.7319V41.7207V41.7094V41.6982V41.6871V41.6759V41.6648V41.6537V41.6426V41.6316V41.6205V41.6095V41.5986V41.5876V41.5767V41.5659V41.555V41.5442V41.5334V41.5226V41.5119V41.5012V41.4905V41.4799V41.4692V41.4587V41.4481V41.4376V41.4271V41.4166V41.4062V41.3958V41.3854V41.3751V41.3648V41.3545V41.3442V41.334V41.3239V41.3137V41.3036V41.2935V41.2835V41.2735V41.2635V41.2535V41.2436V41.2337V41.2239V41.2141V41.2043V41.1946V41.1849V41.1752V41.1656V41.156V41.1464V41.1369V41.1274V41.118V41.1085V41.0992V41.0898V41.0805V41.0713V41.062V41.0528V41.0437V41.0346V41.0255V41.0164V41.0074V40.9985V40.9896V40.9807V40.9718V40.963V40.9543V40.9455V40.9369V40.9282V40.9196V40.911V40.9025V40.894V40.8856V40.8772V40.8688V40.8605V40.8523V40.844V40.8358V40.8277V40.8196V40.8115V40.8035V40.7955V40.7876V40.7797V40.7719V40.7641V40.7563V40.7486V40.7409V40.7333V40.7257V40.7182V40.7107V40.7033V40.6959V40.6885V40.6812V40.674V40.6667V40.6596V40.6525V40.6454V40.6384V40.6314V40.6245V40.6176V40.6107V40.604V40.5972V40.5905V40.5839V40.5773V40.5708V40.5643V40.5578V40.5514V40.5451V40.5388V40.5325V40.5263V40.5202V40.5141V40.5081V40.5021V40.4961V40.4902V40.4844V40.4786V40.4729V40.4672V40.4616V40.456V40.4505V40.445V40.4396V40.4342V40.4289V40.4236V40.4184V40.4133V40.4082V40.4031V40.3981V40.3932V40.3883V40.3835V40.3787V40.374V40.3693V40.3647V40.3602V40.3557V40.3513V40.3469V40.3426V40.3383V40.3341V40.33V40.3259V40.3218V40.3178V40.3139V40.3101V40.3063V40.3025V40.2988V40.2952V40.2916V40.2881V40.2847V40.2813V40.278V40.2747V40.2715V40.2683V40.2652V40.2622V40.2593V40.2563V40.2535V40.2507V40.248V40.2453V40.2427V40.2402V40.2377V40.2353V40.233V40.2307V40.2285V40.2263V40.2242V40.2222V40.2202V40.2183V40.2165V40.2147V40.213V40.2113V40.2098V40.2083V40.2068V40.2054V40.2041V40.2029V40.2017V40.2005V40.1995V40.1985V40.1976V40.1967V40.1959V40.1952V40.1946V40.194V40.1935V40.193V40.1927V40.1923V40.1921V40.1919V40.1918V39.7842L40.0663 39.5625L37.5148 37.9085L36.6572 37.3272L37.5187 36.8911L41.6537 39.0842ZM38.9083 44.9576V44.9579C38.1521 46.1811 37.3763 46.7448 36.5221 46.9215C35.8637 47.0578 35.073 46.9838 34.0853 46.6704L37.495 44.5605L37.8504 44.3406V43.9228V41.0209V39.9136L38.9083 40.5994V40.604V40.6107V40.6176V40.6245V40.6314V40.6384V40.6454V40.6525V40.6596V40.6667V40.674V40.6812V40.6885V40.6959V40.7033V40.7107V40.7182V40.7257V40.7333V40.7409V40.7486V40.7563V40.7641V40.7719V40.7797V40.7876V40.7955V40.8035V40.8115V40.8196V40.8277V40.8358V40.844V40.8523V40.8605V40.8688V40.8772V40.8856V40.894V40.9025V40.911V40.9196V40.9282V40.9369V40.9455V40.9543V40.963V40.9718V40.9807V40.9896V40.9985V41.0074V41.0164V41.0255V41.0346V41.0437V41.0528V41.062V41.0713V41.0805V41.0898V41.0992V41.1085V41.118V41.1274V41.1369V41.1464V41.156V41.1656V41.1752V41.1849V41.1946V41.2043V41.2141V41.2239V41.2337V41.2436V41.2535V41.2635V41.2735V41.2835V41.2935V41.3036V41.3137V41.3239V41.334V41.3442V41.3545V41.3648V41.3751V41.3854V41.3958V41.4062V41.4166V41.4271V41.4376V41.4481V41.4587V41.4692V41.4799V41.4905V41.5012V41.5119V41.5226V41.5334V41.5442V41.555V41.5659V41.5767V41.5876V41.5986V41.6095V41.6205V41.6316V41.6426V41.6537V41.6648V41.6759V41.6871V41.6982V41.7094V41.7207V41.7319V41.7432V41.7545V41.7659V41.7772V41.7886V41.8V41.8115V41.8229V41.8344V41.8459V41.8575V41.869V41.8806V41.8922V41.9038V41.9155V41.9271V41.9388V41.9506V41.9623V41.9741V41.9858V41.9976V42.0095V42.0213V42.0332V42.0451V42.057V42.0689V42.0809V42.0928V42.1048V42.1168V42.1289V42.1409V42.153V42.1651V42.1772V42.1893V42.2015V42.2136V42.2258V42.238V42.2502V42.2625V42.2747V42.287V42.2993V42.3116V42.3239V42.3362V42.3486V42.361V42.3733V42.3857V42.3982V42.4106V42.423V42.4355V42.448V42.4605V42.473V42.4855V42.498V42.5106V42.5231V42.5357V42.5483V42.5609V42.5735V42.5862V42.5988V42.6115V42.6241V42.6368V42.6495V42.6622V42.6749V42.6876V42.7004V42.7131V42.7259V42.7386V42.7514V42.7642V42.777V42.7898V42.8026V42.8155V42.8283V42.8411V42.854V42.8669V42.8797V42.8926V42.9055V42.9184V42.9313V42.9442V42.9571V42.9701V42.983V42.996V43.0089V43.0219V43.0348V43.0478V43.0608V43.0737V43.0867V43.0997V43.1127V43.1257V43.1387V43.1517V43.1647V43.1778V43.1908V43.2038V43.2169V43.2299V43.2429V43.256V43.269V43.2821V43.2951V43.3082V43.3212V43.3343V43.3473V43.3604V43.3735V43.3865V43.3996V43.4127V43.4257V43.4388V43.4519V43.4649V43.478V43.4911V43.5042V43.5172V43.5303V43.5434V43.5564V43.5695V43.5826V43.5956V43.6087V43.6217V43.6348V43.6478V43.6609V43.6739V43.687V43.7V43.7131V43.7261V43.7391V43.7522V43.7652V43.7782V43.7912V43.8043V43.8173V43.8303V43.8433V43.8563V43.8692V43.8822V43.8952V43.9082V43.9211V43.9341V43.947V43.96V43.9729V43.9859V43.9988V44.0117V44.0246V44.0375V44.0504V44.0633V44.0762V44.089V44.1019V44.1147V44.1276V44.1404V44.1532V44.166V44.1788V44.1916V44.2044V44.2172V44.23V44.2427V44.2555V44.2682V44.2809V44.2936V44.3063V44.319V44.3316V44.3443V44.357V44.3696V44.3822V44.3948V44.4074V44.42V44.4326V44.4451V44.4577V44.4702V44.4827V44.4952V44.5077V44.5201V44.5326V44.545V44.5574V44.5699V44.5822V44.5946V44.607V44.6193V44.6317V44.644V44.6563V44.6685V44.6808V44.693V44.7053V44.7175V44.7296V44.7418V44.754V44.7661V44.7782V44.7903V44.8024V44.8144V44.8265V44.8385V44.8505V44.8625V44.8744V44.8864V44.8983V44.9102V44.9221V44.9339V44.9458V44.9576ZM36.3504 43.5049L32.2343 46.0518C30.3365 45.8361 29.4997 45.3636 29.0743 44.7776C28.7389 44.3155 28.577 43.6848 28.5105 42.7642L30.0993 43.6912L31.1746 44.3185L31.4917 44.5035L31.577 44.5533L31.5991 44.5662L31.6047 44.5695L31.6061 44.5703L31.6065 44.5705L31.6065 44.5705L31.9845 43.9228L31.6066 44.5706L32.0052 44.8031L32.3925 44.5521L34.9118 42.919L36.3504 42.2195V43.5049ZM30.8552 42.3955L28.2912 40.8996C27.5614 39.417 27.4354 38.3752 27.6931 37.5615C27.8858 36.9529 28.3256 36.3675 29.1029 35.7725V39.3628V39.7704L29.445 39.9922L32.0029 41.6502L32.0177 41.6598L32.0329 41.6687L33.1118 42.2982L31.9638 43.0424L31.9305 43.0229L30.8552 42.3955ZM36.3504 40.5516L34.5746 41.415L33.1609 40.5902V39.0102L35.1143 38.0937L36.3504 38.9313V40.5516ZM26.263 37.1087C25.8333 38.4659 26.1435 39.951 26.9717 41.6151C26.9787 43.174 27.088 44.5947 27.8604 45.6588C28.6802 46.788 30.0956 47.3375 32.2163 47.5587C33.9206 48.3083 35.449 48.6753 36.826 48.3904C38.2156 48.1029 39.293 47.1886 40.1864 45.7431C41.8466 44.9203 43.0677 44.0091 43.5777 42.7459C44.1042 41.4416 43.7853 39.9972 42.9651 38.3523C42.9411 36.4915 42.5405 34.9865 41.4808 33.9439C40.4598 32.9394 38.9645 32.5013 37.0611 32.4085C36.0575 31.1594 34.688 30.7116 33.2682 31.0117C31.8432 31.313 30.4601 32.3432 29.3442 33.816C27.7975 34.72 26.6918 35.7546 26.263 37.1087Z" fill="url(#paint0_linear_1480_10076)"/>
<defs>
<linearGradient id="paint0_linear_1480_10076" x1="11.6719" y1="38.3888" x2="71.3741" y2="15.9379" gradientUnits="userSpaceOnUse">
<stop stop-color="#C64783"/>
<stop offset="1" stop-color="#A21837"/>
</linearGradient>
</defs>
</svg>
