<svg width="66" height="65" viewBox="0 0 66 65" fill="none" xmlns="http://www.w3.org/2000/svg">
<path fill-rule="evenodd" clip-rule="evenodd" d="M33 65C50.9493 65 65.5 50.4493 65.5 32.5C65.5 14.5507 50.9493 0 33 0C15.0507 0 0.5 14.5507 0.5 32.5C0.5 50.4493 15.0507 65 33 65ZM33 63.4374C15.9137 63.4374 2.06258 49.5863 2.06258 32.5C2.06258 15.4137 15.9137 1.56258 33 1.56258C50.0863 1.56258 63.9374 15.4137 63.9374 32.5C63.9374 49.5863 50.0863 63.4374 33 63.4374ZM33 60C48.1878 60 60.5 47.6878 60.5 32.5C60.5 17.3122 48.1878 5 33 5C17.8122 5 5.5 17.3122 5.5 32.5C5.5 47.6878 17.8122 60 33 60ZM33 58.6778C18.5424 58.6778 6.82218 46.9576 6.82218 32.5C6.82218 18.0424 18.5424 6.32218 33 6.32218C47.4576 6.32218 59.1778 18.0424 59.1778 32.5C59.1778 46.9576 47.4576 58.6778 33 58.6778ZM17.1531 21.6C17.0781 21.5998 17.007 21.6112 16.9453 21.6307C16.8834 21.6503 16.8389 21.6756 16.8107 21.6973C16.7997 21.7057 16.792 21.713 16.7869 21.7185V38.4494C16.7869 38.5013 16.8037 38.5339 16.8338 38.5611C16.8663 38.5904 16.9583 38.65 17.1556 38.65C25.3089 38.65 29.4965 39.7033 32.1489 41.4769V26.5156C31.6185 25.0359 30.4066 23.8386 28.0855 22.9855C25.6687 22.0973 22.1299 21.6172 17.1531 21.6ZM33.8489 26.5179V41.4768C36.5058 39.697 40.6841 38.65 48.8431 38.65C49.0027 38.65 49.1245 38.5995 49.1866 38.5517C49.1984 38.5426 49.2065 38.5349 49.2118 38.5292V21.7185C49.2094 21.7158 49.2063 21.7128 49.2026 21.7094C49.1985 21.7058 49.1937 21.7017 49.188 21.6973C49.1598 21.6756 49.1154 21.6503 49.0534 21.6307C48.9917 21.6112 48.9206 21.5998 48.8456 21.6C43.8688 21.6172 40.33 22.0973 37.9132 22.9855C35.5908 23.839 34.3789 25.0371 33.8489 26.5179ZM16.4317 20.0101C16.6663 19.9358 16.9126 19.8993 17.1581 19.9H17.1585C22.2035 19.9174 25.9771 20.3995 28.6719 21.3899C30.6512 22.1173 32.0881 23.1363 32.9994 24.4683C33.9106 23.1363 35.3475 22.1173 37.3268 21.3899C40.0216 20.3995 43.7952 19.9174 48.8402 19.9L48.8406 19.9C49.0861 19.8993 49.3324 19.9358 49.567 20.0101C49.8013 20.0844 50.0261 20.1972 50.2245 20.3498C50.4231 20.5026 50.596 20.696 50.7196 20.9269C50.8436 21.1584 50.9127 21.4182 50.9118 21.6888L50.9118 21.6917L50.0619 21.6875H50.9118V21.6888V38.5625C50.9118 39.1193 50.6231 39.5915 50.2231 39.8992C49.8281 40.203 49.3299 40.35 48.8431 40.35C39.1435 40.35 35.6671 41.864 33.5885 43.8627C33.2594 44.1792 32.7389 44.1791 32.4099 43.8624C30.345 41.875 26.8549 40.35 17.1556 40.35C16.0168 40.35 15.0869 39.5769 15.0869 38.4494V21.6892L15.0869 21.6917L15.9369 21.6875H15.0882L16.4317 20.0101ZM15.0882 21.6875H15.0869V21.6892L15.0882 21.6875Z" fill="url(#paint0_linear_1480_10188)"/>
<defs>
<linearGradient id="paint0_linear_1480_10188" x1="11.6719" y1="38.0714" x2="71.3741" y2="15.6205" gradientUnits="userSpaceOnUse">
<stop stop-color="#C64783"/>
<stop offset="1" stop-color="#A21837"/>
</linearGradient>
</defs>
</svg>
