<svg width="65" height="66" viewBox="0 0 65 66" fill="none" xmlns="http://www.w3.org/2000/svg">
<path fill-rule="evenodd" clip-rule="evenodd" d="M65 32.8477C65 50.7969 50.4493 65.3477 32.5 65.3477C14.5507 65.3477 0 50.7969 0 32.8477C0 14.8984 14.5507 0.347656 32.5 0.347656C50.4493 0.347656 65 14.8984 65 32.8477ZM1.56258 32.8477C1.56258 49.9339 15.4137 63.7851 32.5 63.7851C49.5863 63.7851 63.4374 49.9339 63.4374 32.8477C63.4374 15.7614 49.5863 1.91024 32.5 1.91024C15.4137 1.91024 1.56258 15.7614 1.56258 32.8477ZM60 32.8481C60 48.0359 47.6878 60.3481 32.5 60.3481C17.3122 60.3481 5 48.0359 5 32.8481C5 17.6602 17.3122 5.34807 32.5 5.34807C47.6878 5.34807 60 17.6602 60 32.8481ZM6.32218 32.8481C6.32218 47.3057 18.0424 59.0259 32.5 59.0259C46.9576 59.0259 58.6778 47.3057 58.6778 32.8481C58.6778 18.3905 46.9576 6.67025 32.5 6.67025C18.0424 6.67025 6.32218 18.3905 6.32218 32.8481ZM14.7656 18.3475C14.3514 18.3475 14.0156 18.6833 14.0156 19.0975C14.0156 19.5117 14.3514 19.8475 14.7656 19.8475H34.9213C35.6116 19.8475 36.1713 20.4072 36.1713 21.0975V40.7991H29.5495C29.1668 38.6408 27.1608 37.0579 24.8369 37.0579C22.513 37.0579 20.507 38.6408 20.1243 40.7991H14.7656C14.3514 40.7991 14.0156 41.1349 14.0156 41.5491C14.0156 41.9634 14.3514 42.2991 14.7656 42.2991H20.124C20.5061 44.4582 22.5125 46.0417 24.8369 46.0417C27.1613 46.0417 29.1677 44.4582 29.5498 42.2991H36.1719V42.2994H36.9219H40.2608C40.643 44.4584 42.6493 46.0417 44.9736 46.0417C47.2979 46.0417 49.3042 44.4584 49.6864 42.2994H52.5351C53.2254 42.2994 53.7851 41.7398 53.7851 41.0494V32.6946C53.7851 32.0042 53.2254 31.4446 52.5351 31.4446H47.4585C47.4415 31.3627 47.4159 31.2808 47.381 31.1999L43.7833 22.845C43.5859 22.3865 43.1345 22.0894 42.6352 22.0894H37.6713V21.0975C37.6713 19.5787 36.4401 18.3475 34.9213 18.3475H14.7656ZM44.9736 37.0579C42.6496 37.0579 40.6435 38.6409 40.2609 40.7994H37.6719V32.9446H52.2851V40.7994H49.6863C49.3037 38.6409 47.2976 37.0579 44.9736 37.0579ZM28.1151 41.5245L28.1148 41.5379L28.1147 41.5491L28.1148 41.5626L28.1151 41.5741C28.1009 43.1651 26.6911 44.5417 24.8369 44.5417C22.9733 44.5417 21.5586 43.1511 21.5586 41.5498C21.5586 39.9485 22.9733 38.5579 24.8369 38.5579C26.6907 38.5579 28.1003 39.9339 28.1151 41.5245ZM37.6719 23.5894V31.4442H45.8531L42.4707 23.5894H37.6719ZM44.9736 38.5579C43.11 38.5579 41.6953 39.9485 41.6953 41.5498C41.6953 43.1511 43.11 44.5417 44.9736 44.5417C46.8372 44.5417 48.2519 43.1511 48.2519 41.5498C48.2519 39.9485 46.8372 38.5579 44.9736 38.5579ZM13.5 25.6459C13.5 24.5612 14.4638 23.5894 15.7712 23.5894C16.7932 23.5894 17.6217 24.1943 17.9196 24.9771C18.0669 25.3642 18.5001 25.5586 18.8873 25.4113C19.2744 25.264 19.4688 24.8308 19.3215 24.4437C18.7899 23.0464 17.3802 22.0894 15.7712 22.0894C13.7415 22.0894 12 23.6306 12 25.6459C12 27.6612 13.7415 29.2023 15.7712 29.2023H30.8774C31.2916 29.2023 31.6274 28.8665 31.6274 28.4523C31.6274 28.0381 31.2916 27.7023 30.8774 27.7023H15.7712C14.4638 27.7023 13.5 26.7305 13.5 25.6459ZM14.7642 32.9446C14.0129 32.9446 13.5 33.4976 13.5 34.0655C13.5 34.6335 14.0129 35.1865 14.7642 35.1865C15.1426 35.1865 15.4724 35.0399 15.6991 34.8189C15.9956 34.5298 16.4705 34.5358 16.7596 34.8323C17.0488 35.1289 17.0428 35.6037 16.7462 35.8929C16.2391 36.3873 15.5334 36.6865 14.7642 36.6865C13.2906 36.6865 12 35.5642 12 34.0655C12 32.5669 13.2906 31.4446 14.7642 31.4446H24.8349C25.2491 31.4446 25.5849 31.7804 25.5849 32.1946C25.5849 32.6088 25.2491 32.9446 24.8349 32.9446H14.7642Z" fill="url(#paint0_linear_1480_10024)"/>
<defs>
<linearGradient id="paint0_linear_1480_10024" x1="11.1719" y1="38.4191" x2="70.8741" y2="15.9682" gradientUnits="userSpaceOnUse">
<stop stop-color="#C64783"/>
<stop offset="1" stop-color="#A21837"/>
</linearGradient>
</defs>
</svg>
