<svg width="65" height="66" viewBox="0 0 65 66" fill="none" xmlns="http://www.w3.org/2000/svg">
<path fill-rule="evenodd" clip-rule="evenodd" d="M32.5 65.8193C50.4493 65.8193 65 51.2686 65 33.3193C65 15.3701 50.4493 0.819336 32.5 0.819336C14.5507 0.819336 0 15.3701 0 33.3193C0 51.2686 14.5507 65.8193 32.5 65.8193ZM32.5 64.2568C15.4137 64.2568 1.56258 50.4056 1.56258 33.3193C1.56258 16.2331 15.4137 2.38192 32.5 2.38192C49.5863 2.38192 63.4374 16.2331 63.4374 33.3193C63.4374 50.4056 49.5863 64.2568 32.5 64.2568ZM32.5 60.8192C47.6878 60.8192 60 48.5071 60 33.3192C60 18.1314 47.6878 5.81923 32.5 5.81923C17.3122 5.81923 5 18.1314 5 33.3192C5 48.5071 17.3122 60.8192 32.5 60.8192ZM32.5 59.497C18.0424 59.497 6.32218 47.7768 6.32218 33.3192C6.32218 18.8616 18.0424 7.14141 32.5 7.14141C46.9576 7.14141 58.6778 18.8616 58.6778 33.3192C58.6778 47.7768 46.9576 59.497 32.5 59.497Z" fill="url(#paint0_linear_1480_10161)"/>
<path d="M21.0156 22.1113C19.4202 22.1113 17.8901 22.631 16.7619 23.5562C15.6338 24.4813 15 25.736 15 27.0443V36.9102C15 38.2185 15.6338 39.4732 16.7619 40.3983C17.8901 41.3234 19.4202 41.8432 21.0156 41.8432H39.6094C41.2048 41.8432 42.7349 41.3234 43.8631 40.3983C44.9912 39.4732 45.625 38.2185 45.625 36.9102V27.0443C45.625 25.736 44.9912 24.4813 43.8631 23.5562C42.7349 22.631 41.2048 22.1113 39.6094 22.1113H21.0156ZM17.1875 36.9102V32.8741H24.3909L20.7881 35.8267C20.5827 35.9952 20.4674 36.2236 20.4674 36.4618C20.4674 36.6999 20.5827 36.9283 20.7881 37.0968C20.9935 37.2652 21.2721 37.3598 21.5625 37.3598C21.8529 37.3598 22.1315 37.2652 22.3369 37.0968L25.9375 34.1424V40.0494H21.0156C20.0003 40.0494 19.0266 39.7186 18.3087 39.1299C17.5908 38.5412 17.1875 37.7428 17.1875 36.9102ZM17.1875 31.0803V27.0443C17.1875 25.3115 18.9025 23.9051 21.0156 23.9051H25.9375V26.1797C25.1035 25.7849 24.1339 25.6268 23.1791 25.7299C22.2243 25.833 21.3376 26.1915 20.6567 26.7499C19.9757 27.3083 19.5384 28.0354 19.4127 28.8184C19.287 29.6013 19.4798 30.3964 19.9612 31.0803H17.1875ZM25.9375 31.0803H23.75C23.3174 31.0803 22.8944 30.9751 22.5347 30.778C22.175 30.5809 21.8946 30.3008 21.729 29.973C21.5634 29.6452 21.5201 29.2846 21.6045 28.9366C21.6889 28.5886 21.8973 28.269 22.2032 28.0181C22.5091 27.7673 22.8989 27.5964 23.3232 27.5272C23.7476 27.458 24.1874 27.4935 24.5871 27.6293C24.9868 27.7651 25.3285 27.995 25.5688 28.29C25.8092 28.5849 25.9375 28.9318 25.9375 29.2865V31.0803ZM28.125 31.0803V29.2865C28.125 28.9318 28.2533 28.5849 28.4937 28.29C28.734 27.995 29.0757 27.7651 29.4754 27.6293C29.8751 27.4935 30.3149 27.458 30.7393 27.5272C31.1636 27.5964 31.5534 27.7673 31.8593 28.0181C32.1652 28.269 32.3736 28.5886 32.458 28.9366C32.5424 29.2846 32.4991 29.6452 32.3335 29.973C32.1679 30.3008 31.8875 30.5809 31.5278 30.778C31.1681 30.9751 30.7451 31.0803 30.3125 31.0803H28.125ZM34.6875 29.2865C34.6875 28.6568 34.4853 28.0381 34.1013 27.4928C33.7173 26.9474 33.165 26.4945 32.5 26.1797C31.8349 25.8648 31.0804 25.699 30.3125 25.699C29.5445 25.699 28.7901 25.8648 28.125 26.1797V23.9051H39.6094C41.7225 23.9051 43.4375 25.3115 43.4375 27.0443V31.0803H34.1012C34.4862 30.5353 34.6885 29.9164 34.6875 29.2865ZM33.2744 35.8267L29.6716 32.8741H43.4375V36.9102C43.4375 37.7428 43.0342 38.5412 42.3163 39.1299C41.5984 39.7186 40.6247 40.0494 39.6094 40.0494H28.125V34.1424L31.7256 37.0968C31.931 37.2652 32.2096 37.3598 32.5 37.3598C32.7904 37.3598 33.069 37.2652 33.2744 37.0968C33.4798 36.9283 33.5951 36.6999 33.5951 36.4618C33.5951 36.2236 33.4798 35.9952 33.2744 35.8267ZM25.3906 45.4308C23.5203 45.4308 21.8491 44.7312 20.7466 43.6334L21.0156 43.637H39.6094C41.785 43.637 43.8715 42.9283 45.4099 41.6667C46.9482 40.4052 47.8125 38.6943 47.8125 36.9102V27.0443C47.8125 26.9707 47.8125 26.8972 47.8081 26.8236C48.4942 27.2859 49.0467 27.8673 49.4258 28.5259C49.8048 29.1844 50.0009 29.9037 50 30.6319V36.9102C50 39.17 48.9053 41.3372 46.9567 42.9352C45.008 44.5331 42.3651 45.4308 39.6094 45.4308H25.3906Z" fill="url(#paint1_linear_1480_10161)"/>
<defs>
<linearGradient id="paint0_linear_1480_10161" x1="11.1719" y1="38.8908" x2="70.8741" y2="16.4399" gradientUnits="userSpaceOnUse">
<stop stop-color="#C64783"/>
<stop offset="1" stop-color="#A21837"/>
</linearGradient>
<linearGradient id="paint1_linear_1480_10161" x1="21.0156" y1="35.7699" x2="48.8441" y2="20.0633" gradientUnits="userSpaceOnUse">
<stop stop-color="#C64783"/>
<stop offset="1" stop-color="#A21837"/>
</linearGradient>
</defs>
</svg>
