<svg width="243" height="230" viewBox="0 0 243 230" fill="none" xmlns="http://www.w3.org/2000/svg">
<path opacity="0.1" d="M199.705 36.804C191.692 41.8482 184.823 43.5555 180.786 40.723C176.75 37.8904 176.288 31.0419 178.798 22.1369C162.671 19.964 142.568 29.8196 128.73 48.2117C126.32 51.4129 124.252 54.6917 122.464 58.0286C120.677 54.6917 118.608 51.4129 116.198 48.2117C102.361 29.8196 82.2575 19.964 66.1305 22.1369C68.641 31.0419 68.179 37.8904 64.1423 40.723C60.1055 43.5555 53.237 41.8676 45.2238 36.804C38.0942 50.9473 41.5887 72.4629 55.4261 90.855C57.7676 93.9708 60.3525 96.9089 63.1582 99.6437C59.3223 100.245 55.4462 101.138 51.55 102.36C29.1973 109.383 13.2913 124.807 10.4395 140.289C19.979 140.754 26.5865 143.276 28.1329 147.855C29.6793 152.434 25.8835 158.235 18.4326 164.016C30.1613 174.939 52.4136 178.373 74.8065 171.35C78.7027 170.127 82.378 168.653 85.8524 166.965C85.27 170.671 84.9486 174.512 84.9486 178.47C84.9486 201.208 95.2112 220.589 109.591 228C112.985 219.367 117.524 214.09 122.504 214.09C127.485 214.09 132.024 219.367 135.418 228C149.798 220.609 160.06 201.227 160.06 178.47C160.06 174.512 159.719 170.651 159.136 166.946C162.611 168.633 166.286 170.127 170.202 171.35C192.595 178.373 214.848 174.939 226.576 164.016C219.125 158.215 215.33 152.434 216.876 147.855C218.422 143.276 225.01 140.735 234.569 140.289C231.738 124.787 215.812 109.383 193.419 102.36C189.523 101.138 185.646 100.245 181.831 99.6437C184.636 96.9089 187.221 93.9708 189.563 90.855C203.36 72.4435 206.834 50.9473 199.705 36.804Z" stroke="url(#paint0_linear_1522_10217)" stroke-width="4" stroke-miterlimit="10" stroke-linecap="round" stroke-linejoin="round"/>
<path opacity="0.1" d="M243 96.3274C232.737 95.8424 225.628 93.1069 223.981 88.179C222.334 83.2512 226.411 77.0235 234.404 70.7958C221.792 59.0388 197.853 55.3526 173.773 62.919C169.595 64.2382 165.619 65.8291 161.903 67.6334C162.526 63.6562 162.888 59.5238 162.888 55.275C162.888 30.8104 151.862 9.95439 136.398 2C132.743 11.2931 127.862 16.9581 122.5 16.9581C117.138 16.9581 112.258 11.2931 108.602 2C93.1382 9.95439 82.1124 30.8104 82.1124 55.275C82.1124 59.5238 82.4538 63.6562 83.0965 67.6334C79.361 65.8291 75.4046 64.2382 71.2273 62.919C47.1473 55.3526 23.208 59.0582 10.5957 70.7958C18.6089 77.0235 22.6858 83.2706 21.0189 88.179C19.3721 93.1069 12.2626 95.8424 2 96.3274C5.05267 112.993 22.1637 129.581 46.2637 137.128C50.441 138.447 54.6183 139.398 58.7354 140.057C55.8032 142.928 53.0117 146.071 50.4209 149.505C35.5392 169.294 31.7836 192.44 39.4554 207.65C48.0712 202.218 55.4618 200.394 59.7998 203.44C64.1378 206.486 64.6399 213.839 61.9488 223.442C79.3008 225.79 100.91 215.178 115.792 195.389C118.383 191.935 120.612 188.385 122.52 184.796C124.428 188.385 126.657 191.935 129.248 195.389C144.13 215.178 165.739 225.79 183.091 223.442C180.4 213.858 180.902 206.486 185.24 203.44C189.578 200.394 196.969 202.218 205.585 207.65C213.257 192.44 209.501 169.294 194.619 149.505C192.029 146.071 189.237 142.909 186.305 140.057C190.422 139.398 194.599 138.447 198.777 137.128C222.836 129.561 239.947 112.993 243 96.3274Z" stroke="url(#paint1_linear_1522_10217)" stroke-width="4" stroke-miterlimit="10" stroke-linecap="round" stroke-linejoin="round"/>
<defs>
<linearGradient id="paint0_linear_1522_10217" x1="48.9618" y1="142.591" x2="250.287" y2="60.2843" gradientUnits="userSpaceOnUse">
<stop stop-color="#C64783"/>
<stop offset="1" stop-color="#A21837"/>
</linearGradient>
<linearGradient id="paint1_linear_1522_10217" x1="43.4219" y1="131.89" x2="259.924" y2="43.4132" gradientUnits="userSpaceOnUse">
<stop stop-color="#C64783"/>
<stop offset="1" stop-color="#A21837"/>
</linearGradient>
</defs>
</svg>
