<svg width="30" height="32" viewBox="0 0 30 32" fill="none" xmlns="http://www.w3.org/2000/svg">
<path d="M25.5263 21.3008C23.978 20.5566 22.0063 19.9911 19.8214 19.6539C21.2221 18.9272 22.439 17.8903 23.396 16.5981C24.7294 14.7977 25.4341 12.6594 25.4341 10.4144C25.4341 4.67188 20.7531 0 14.9993 0C9.24558 0 4.56458 4.67188 4.56458 10.4144C4.56458 12.6594 5.26933 14.7978 6.60277 16.5982C7.55939 17.8899 8.7757 18.9264 10.1757 19.6531C9.50427 19.7564 8.85195 19.8816 8.22364 20.0278C6.10964 20.5196 4.32002 21.2417 3.0482 22.1161C1.18258 23.3986 0.791016 24.7446 0.791016 25.6479C0.791016 27.4998 2.37833 29.1676 5.26058 30.344C7.87708 31.4119 11.3358 32 14.9993 32C18.663 32 22.1216 31.4119 24.7381 30.3439C27.6203 29.1675 29.2076 27.4997 29.2076 25.6478C29.2076 24.4719 28.569 22.7632 25.5263 21.3008V21.3008ZM6.43958 10.4144C6.43958 5.70375 10.2795 1.87131 14.9994 1.87131C19.7193 1.87131 23.5592 5.70375 23.5592 10.4144C23.5592 14.1314 21.1805 17.398 17.64 18.5428L17.261 18.6654L14.9993 23.2946L12.7378 18.6654L12.3587 18.5427C8.81827 17.398 6.43958 14.1314 6.43958 10.4144V10.4144ZM24.0284 28.6118C21.6318 29.59 18.4253 30.1286 14.9993 30.1286C11.5734 30.1286 8.36683 29.5899 5.97027 28.6118C3.90127 27.7673 2.66595 26.6593 2.66595 25.6478C2.66595 24.2091 5.07045 22.6829 8.64927 21.8502C9.68333 21.6096 10.7906 21.4301 11.9465 21.3155L14.9993 27.5644L18.0523 21.3154C23.8078 21.8846 27.3326 23.9556 27.3326 25.6478C27.3326 26.6593 26.0975 27.7673 24.0284 28.6118V28.6118Z" fill="url(#paint0_linear_1500_10622)"/>
<path d="M21.07 10.4265C21.07 7.08537 18.3465 4.36719 14.9989 4.36719C11.6512 4.36719 8.92773 7.08537 8.92773 10.4265C8.92773 13.7676 11.6512 16.4857 14.9989 16.4857C18.3465 16.4858 21.07 13.7676 21.07 10.4265ZM10.8027 10.4265C10.8027 8.11725 12.6851 6.23856 14.9989 6.23856C17.3126 6.23856 19.195 8.11725 19.195 10.4265C19.195 12.7357 17.3126 14.6144 14.9989 14.6144C12.6851 14.6144 10.8027 12.7357 10.8027 10.4265Z" fill="url(#paint1_linear_1500_10622)"/>
<defs>
<linearGradient id="paint0_linear_1500_10622" x1="5.67512" y1="18.7429" x2="32.4777" y2="9.79245" gradientUnits="userSpaceOnUse">
<stop stop-color="#C64783"/>
<stop offset="1" stop-color="#A21837"/>
</linearGradient>
<linearGradient id="paint1_linear_1500_10622" x1="11.0147" y1="11.4652" x2="22.1619" y2="7.26512" gradientUnits="userSpaceOnUse">
<stop stop-color="#C64783"/>
<stop offset="1" stop-color="#A21837"/>
</linearGradient>
</defs>
</svg>
