<svg width="65" height="61" viewBox="0 0 65 61" fill="none" xmlns="http://www.w3.org/2000/svg">
<path d="M61.177 53.9349C61.177 53.9349 61.164 53.874 61.1327 53.7598C61.1023 53.6448 61.0567 53.4741 60.9886 53.2555C60.9246 53.0336 60.8341 52.7671 60.7265 52.4503C60.6252 52.1278 60.4721 51.785 60.3036 51.3921L60.0256 50.7771C59.9243 50.5638 59.8226 50.335 59.6968 50.1137C59.5753 49.8882 59.4479 49.6526 59.3101 49.4114C59.1694 49.1594 59.0247 48.9093 58.876 48.6614C58.5575 48.1615 58.2034 47.6359 57.8191 47.0833C57.6206 46.8148 57.4089 46.5463 57.1944 46.2663C56.9744 45.9926 56.7528 45.7054 56.5158 45.4233C56.2722 45.1495 56.0257 44.8652 55.7665 44.5821C55.5051 44.3022 55.2479 44.0018 54.9606 43.7293C54.3951 43.1723 53.8084 42.5856 53.1606 42.0406C52.8389 41.7646 52.5153 41.4784 52.1758 41.2045C52.0016 41.0682 51.8263 40.9306 51.6489 40.793C51.6362 39.9366 51.407 39.0953 50.9803 38.3382C50.9803 38.3382 50.6315 37.7178 49.9748 36.655C49.8075 36.391 49.6116 36.1041 49.3992 35.7916C49.1852 35.4799 48.9606 35.1389 48.7024 34.7852C48.1765 34.0833 47.5922 33.2858 46.8854 32.4616L46.3531 31.8257C46.1686 31.6121 45.9715 31.4011 45.7746 31.1842C45.3778 30.7524 44.9782 30.2986 44.529 29.8618C44.087 29.4199 43.6415 28.9599 43.1524 28.5182L42.4188 27.8437C42.1711 27.6176 41.9088 27.4003 41.651 27.1757C41.39 26.954 41.1274 26.7305 40.8589 26.5093L40.0334 25.8567C39.4886 25.4107 38.8942 25.0041 38.314 24.5783C38.1474 24.4595 37.9795 24.3422 37.8104 24.2264L37.5253 23.2676C37.476 23.0944 37.4167 22.9256 37.3728 22.7499L37.2408 22.2247C37.1539 21.8752 37.0643 21.5277 36.9697 21.1824C36.9193 21.011 36.8859 20.8347 36.849 20.66C36.8128 20.4856 36.7748 20.3116 36.735 20.1379L36.5009 19.1056C36.4221 18.7636 36.3687 18.4184 36.3022 18.0801C36.0152 16.7284 35.8175 15.4113 35.5876 14.1857C35.5437 13.8779 35.495 13.5756 35.4476 13.2792C35.4022 12.9886 35.3543 12.6984 35.3037 12.4086L35.232 11.9875C35.2081 11.8487 35.1788 11.7117 35.1617 11.5761C35.1246 11.312 35.0853 11.0482 35.0437 10.7847C34.97 10.3024 34.8907 9.8208 34.8058 9.3401L34.7478 9.01008C34.7279 8.90226 34.7069 8.79634 34.6922 8.69305L34.5984 8.10128C34.5036 7.51374 34.397 6.92794 34.2786 6.34419C34.194 5.93506 34.1403 5.71441 34.1403 5.71441L34.1341 5.6888C34.0957 5.53443 34.0083 5.39463 33.8834 5.2879C33.7586 5.18118 33.6021 5.11257 33.4347 5.09116C33.2674 5.06974 33.097 5.09653 32.9462 5.16798C32.7955 5.23943 32.6714 5.35216 32.5904 5.49126C32.5904 5.49126 32.4748 5.68999 32.2742 6.06707C31.9874 6.61144 31.7131 7.16156 31.4516 7.71705C31.0989 8.43094 30.7489 9.31699 30.3537 10.3426C30.2517 10.6071 30.1522 10.8725 30.0551 11.1386C29.9543 11.4129 29.8682 11.6991 29.7744 11.9921C29.6778 12.2928 29.5842 12.5944 29.4935 12.8968C29.3991 13.2066 29.3027 13.5243 29.2098 13.8501C28.8763 15.162 28.5219 16.5947 28.2988 18.1538C28.251 18.4862 28.1935 18.8218 28.149 19.1642C27.6737 18.9876 27.1951 18.827 26.7274 18.6655C26.0613 18.4566 25.4151 18.2454 24.761 18.0804C24.4354 17.9955 24.1207 17.902 23.7982 17.8295L22.8487 17.6144C22.217 17.4874 21.6107 17.3604 21.0061 17.2774C20.7051 17.2335 20.4149 17.1829 20.1223 17.1486L19.2631 17.0545C18.9843 17.0234 18.7035 17.0058 18.4338 16.9867C18.1634 16.9682 17.9005 16.9507 17.6385 16.945C17.3783 16.9363 17.1259 16.9278 16.8809 16.9241L16.1581 16.9333C16.0415 16.9358 15.9284 16.9353 15.815 16.9404L15.4786 16.9607L14.8464 17.0019L14.2569 17.0679C14.0709 17.0888 13.8935 17.1095 13.7203 17.1411C13.3747 17.2015 13.089 17.2442 12.784 17.3155L12.3869 17.4056C12.3285 17.4196 12.2659 17.4328 12.2197 17.4475L12.0981 17.4905C11.7915 17.5986 11.6285 17.661 11.6285 17.661C11.1449 17.8501 10.7589 18.2602 10.6539 18.7793C10.4879 19.5998 11.0623 20.3911 11.9365 20.5468L11.9413 20.5477C11.9413 20.5477 12.1145 20.5785 12.4381 20.6274L12.5665 20.6469C12.6082 20.655 12.6388 20.6683 12.6775 20.6787L12.9167 20.7502L13.5579 20.9393C13.6203 20.9588 13.6826 20.9738 13.7489 20.9954L13.953 21.0633L14.3849 21.2061L14.8556 21.3775L15.1018 21.4673L15.358 21.5685C16.0484 21.8276 16.8233 22.1808 17.6519 22.5639C18.0662 22.7663 18.4942 22.9726 18.9338 23.2024L19.2652 23.3721L19.5991 23.5556C19.8237 23.6774 20.052 23.7952 20.2805 23.9234C20.7352 24.1888 21.2034 24.4461 21.6724 24.7331C21.9075 24.8735 22.1449 25.0133 22.3796 25.167L23.0957 25.6117L23.8095 26.0861C24.0516 26.2386 24.2894 26.4043 24.5285 26.5693C25.0102 26.8918 25.4814 27.2434 25.9607 27.5846C26.8198 28.2263 27.6855 28.8739 28.5117 29.5683C28.5497 29.752 28.5878 29.9356 28.6274 30.1197C28.6721 30.3608 28.748 30.6017 28.8117 30.8436C28.8774 31.086 28.9455 31.3279 29.016 31.5692L29.1636 32.0717C28.7658 32.0271 28.3652 32 27.971 31.9645L27.2496 31.9047C27.0113 31.8808 26.7678 31.8811 26.5291 31.8688C26.0499 31.8511 25.5763 31.8293 25.1072 31.8176C24.6356 31.8154 24.1673 31.8223 23.7066 31.8255L23.0191 31.8393L22.3366 31.8755C21.8848 31.9015 21.4394 31.9343 21.0019 31.9636C20.5618 32.0051 20.1283 32.0612 19.7035 32.1092C19.491 32.1348 19.2806 32.1574 19.0721 32.1856C18.8634 32.2146 18.6555 32.2533 18.4504 32.2865C18.0482 32.3529 17.6467 32.4233 17.246 32.4977C16.8535 32.5686 16.4678 32.6665 16.0936 32.753C15.7187 32.8442 15.3541 32.9205 14.9991 33.0251C14.644 33.1293 14.2988 33.2298 13.9649 33.3344C13.631 33.4383 13.3071 33.5317 12.9955 33.655C12.6837 33.7711 12.3823 33.8813 12.0934 33.9948L11.6677 34.1601C11.5283 34.2121 11.3936 34.28 11.261 34.3387C10.996 34.4598 10.7418 34.5744 10.5004 34.69L10.1464 34.858C10.0307 34.9134 9.92122 34.964 9.80696 35.0277C9.582 35.1488 9.36936 35.2632 9.17068 35.3757C8.98303 35.4795 8.79694 35.5858 8.61246 35.6946C8.44019 35.7965 8.27299 35.8899 8.14921 35.9834C7.88464 36.1644 7.66514 36.333 7.48436 36.4621C7.12546 36.7275 6.93744 36.8781 6.93744 36.8781C6.65612 37.1055 6.47013 37.415 6.45946 37.7908C6.43966 38.4987 7.03431 39.0783 7.78765 39.0783L7.78841 39.0783C7.78841 39.0783 8.03559 39.1118 8.49262 39.1063C8.71974 39.1 9.00348 39.1151 9.33051 39.0998C9.49987 39.0874 9.65906 39.1073 9.83223 39.1148C10.0054 39.1242 10.186 39.1332 10.3752 39.1397C10.5618 39.145 10.7586 39.1523 10.9648 39.1581C11.1696 39.1649 11.4034 39.1829 11.6337 39.1944C12.1015 39.2251 12.5905 39.2272 13.1246 39.2832C13.6562 39.332 14.206 39.3546 14.7947 39.431C15.0875 39.4652 15.385 39.4938 15.6879 39.5239C15.8385 39.5351 15.9944 39.5643 16.1497 39.5837L16.62 39.6467L17.0974 39.7102C17.2577 39.7306 17.4179 39.7454 17.5826 39.776C17.9104 39.8313 18.2424 39.8855 18.5782 39.9351C18.7462 39.9619 18.9145 39.9834 19.0852 40.0149C19.2562 40.0494 19.4282 40.0787 19.601 40.1108C19.9468 40.1727 20.2958 40.2397 20.6488 40.2983C21.0032 40.3721 21.3607 40.4499 21.7215 40.5213L22.2651 40.6283L22.8143 40.7578C23.1822 40.841 23.5528 40.9188 23.9258 41.006C24.2989 41.1036 24.6756 41.1922 25.0537 41.2859C25.4317 41.3744 25.8126 41.4788 26.195 41.5819L26.7699 41.736C26.962 41.7869 27.1556 41.8324 27.348 41.8921C27.7338 42.0031 28.12 42.1195 28.5096 42.2259C28.7047 42.2765 28.8989 42.3369 29.0932 42.3986L29.6772 42.5805C30.4621 42.7997 31.2374 43.0855 32.0259 43.3233C32.4163 43.4585 32.8045 43.6014 33.1977 43.7299C33.3933 43.7974 33.5911 43.8574 33.785 43.9304L34.3672 44.1469C34.7549 44.2921 35.15 44.4169 35.5339 44.5705L36.111 44.7961L36.6907 45.0129C36.8849 45.0825 37.0752 45.1606 37.2649 45.2396L37.8345 45.473C38.2153 45.6249 38.598 45.7701 38.9708 45.9324C39.3448 46.0889 39.7205 46.242 40.0977 46.3915C40.4694 46.5482 40.8367 46.7093 41.2073 46.8605C41.3913 46.9376 41.5764 47.0128 41.7623 47.0858L42.3063 47.3226C42.6661 47.4831 43.0323 47.6289 43.3927 47.7794C43.7446 47.9423 44.1015 48.0926 44.4541 48.2446C44.6311 48.3196 44.8052 48.398 44.9831 48.4689L45.5002 48.7008C45.8421 48.8571 46.1879 49.0023 46.5297 49.1478C46.8612 49.3009 47.1941 49.4512 47.5284 49.5988C48.1986 49.8841 48.8282 50.1907 49.4624 50.4672C49.7803 50.6053 50.0839 50.75 50.3855 50.8916C50.687 51.0329 50.9907 51.1651 51.286 51.2992L52.1443 51.7048L52.9813 52.0864C53.5154 52.3464 54.0324 52.5916 54.5326 52.8162C54.9899 53.0437 55.451 53.2645 55.9156 53.4786C56.136 53.5789 56.3423 53.6796 56.5385 53.7785L57.112 54.055C57.8594 54.3944 58.434 54.6884 58.8532 54.8746C59.0592 54.9702 59.2236 55.0404 59.3348 55.0878C59.4451 55.1358 59.5052 55.1588 59.5052 55.1588L59.5687 55.1833C59.7844 55.2662 60.0215 55.2873 60.25 55.2437C60.4025 55.2149 60.5474 55.1582 60.6764 55.0768C60.8055 54.9954 60.9163 54.891 61.0024 54.7695C61.0884 54.6479 61.1482 54.5117 61.1781 54.3685C61.2081 54.2253 61.2077 54.078 61.177 53.9349Z" fill="#00B89C"/>
<path d="M63.4061 55.0463C63.4061 55.0463 63.2772 54.8125 63.0218 54.3854C62.6518 53.7719 62.2693 53.1652 61.8745 52.5655C61.5899 52.1422 61.3002 51.7219 61.0054 51.3047C60.6851 50.8485 60.3352 50.3576 59.9433 49.8464C59.7437 49.5808 59.5418 49.3166 59.3377 49.054C59.1286 48.7825 58.914 48.503 58.6858 48.2219C58.4527 47.933 58.217 47.6458 57.9788 47.3605C57.7311 47.0601 57.481 46.7614 57.2284 46.4646C56.7089 45.8599 56.1515 45.2421 55.5728 44.6027C54.9873 43.9683 54.3622 43.3271 53.7212 42.665C53.4556 42.4063 53.1872 42.1431 52.9159 41.8785L52.7359 41.5505C52.6435 41.3803 52.5469 41.2121 52.4509 41.043C52.3577 40.8725 52.2507 40.7078 52.1707 40.5303C52.0015 40.1793 51.8231 39.8318 51.6448 39.4822C51.4562 39.1368 51.3121 38.7719 51.1466 38.4153L50.9027 37.8775L50.78 37.6084L50.6723 37.3335L50.2346 36.2346C49.6899 34.7541 49.2315 33.2394 48.8786 31.7006C48.8046 31.3122 48.7236 30.9257 48.6441 30.5394C48.599 30.3476 48.5733 30.1511 48.5455 29.9555L48.4513 29.3708C48.4219 29.1756 48.3818 28.983 48.3604 28.7864L48.2975 28.197C48.25 27.8051 48.1902 27.4165 48.1718 27.0207C48.1443 26.6265 48.0925 26.2369 48.072 25.8432C48.0569 25.4489 48.0265 25.0562 48.003 24.6651C47.9808 23.8778 47.9372 23.0976 47.9403 22.3166C47.9175 21.5392 47.9448 20.762 47.939 19.9973C47.955 19.6139 47.9593 19.2323 47.9655 18.8542L47.9701 18.5714L47.9815 18.2888L48.0012 17.727C48.0154 16.9824 48.0637 16.2481 48.0822 15.5328L48.134 14.4721C48.1435 14.2982 48.1475 14.1243 48.1533 13.9524C48.1589 13.7804 48.1718 13.6098 48.1807 13.4407L48.2683 11.4794L48.3338 9.6786L48.3548 8.84795C48.3644 8.57989 48.3685 8.31957 48.3727 8.06913L48.3821 6.68186C48.3794 6.25939 48.3739 5.88076 48.3621 5.54752C48.3525 5.21488 48.3456 4.93168 48.3304 4.69888C48.3199 4.46751 48.3055 4.28797 48.2959 4.16692C48.2916 4.10543 48.2861 4.04402 48.2794 3.98273L48.2781 3.972C48.2546 3.78113 48.1732 3.60058 48.0438 3.45173C47.9143 3.30287 47.7421 3.19195 47.5475 3.13208C47.353 3.07222 47.1442 3.06592 46.946 3.11393C46.7477 3.16194 46.5683 3.26225 46.4289 3.40299C46.4289 3.40299 46.3824 3.44993 46.2985 3.54286C46.2137 3.63555 46.0879 3.77316 45.932 3.95556C45.6152 4.3187 45.1672 4.8571 44.6381 5.56325L44.2249 6.12249C44.0865 6.32098 43.9373 6.52793 43.7902 6.74643C43.4909 7.18201 43.1732 7.65607 42.8569 8.17552C42.6944 8.43358 42.535 8.70272 42.3678 8.97972C42.202 9.25768 42.0457 9.54945 41.8772 9.84695C41.7139 10.1463 41.5446 10.4519 41.3803 10.7712L40.8923 11.7571C40.7245 12.1019 40.5649 12.45 40.4135 12.8014C40.261 13.1607 40.0943 13.5243 39.9454 13.9015C39.6544 14.6606 39.3461 15.4443 39.0918 16.2772C38.8151 17.1014 38.5888 17.9722 38.3653 18.8654C38.2616 19.3213 38.1656 19.7788 38.0773 20.2376C37.9795 20.6993 37.9065 21.1748 37.8409 21.6546C37.7745 22.1345 37.6944 22.6172 37.6628 23.1128L37.5994 23.8565C37.5801 24.1059 37.5523 24.3542 37.5492 24.6075C37.537 25.1129 37.5179 25.6224 37.5142 26.1344L37.5125 26.3266L37.5188 26.52L37.5323 26.9075C37.5424 27.1662 37.5486 27.4258 37.5629 27.6855C37.5797 28.2046 37.6413 28.7279 37.6934 29.2523L37.7838 30.039C37.8154 30.3015 37.8668 30.5638 37.9081 30.8265C37.9162 30.8729 37.9237 30.9192 37.9315 30.9657C37.6434 30.8147 37.3533 30.6668 37.0614 30.5221L35.4962 29.781C35.2366 29.6573 34.9679 29.5463 34.7013 29.433L33.9022 29.0945C33.6349 28.9836 33.3728 28.8662 33.1025 28.7617L32.2901 28.4555C30.1263 27.6483 27.9133 27.0036 25.718 26.5841C25.1734 26.4686 24.6253 26.3781 24.0823 26.2969C23.5394 26.2154 23.0054 26.1241 22.467 26.0785L21.6688 25.9961C21.4044 25.9699 21.1429 25.939 20.8798 25.926C20.3541 25.8979 19.8373 25.8652 19.3264 25.8478C17.2821 25.795 15.3565 25.8741 13.6068 26.1042C11.8561 26.3102 10.2832 26.6436 8.91653 27.0001C8.57401 27.0849 8.2466 27.1842 7.93124 27.2812C7.62777 27.3728 7.32539 27.4677 7.02416 27.5657L6.60001 27.7039L6.1897 27.8523C5.92246 27.9482 5.66995 28.0482 5.43116 28.1384C4.45793 28.5012 3.80197 28.8521 3.32475 29.0922C3.14444 29.1838 2.96592 29.2785 2.78926 29.3761C2.66827 29.4414 2.60619 29.4787 2.60619 29.4787C2.27898 29.6754 2.03276 29.9707 1.90795 30.316C1.60339 31.1578 2.08353 32.0718 2.98045 32.3576C2.98045 32.3576 3.05015 32.3799 3.18447 32.4159C3.31891 32.4534 3.5181 32.5076 3.77696 32.5705C4.28832 32.7022 5.07848 32.8599 5.95814 33.087C6.18196 33.1383 6.41695 33.1971 6.66095 33.25L7.03521 33.3346L7.43244 33.4295C7.97174 33.5637 8.55027 33.6759 9.16015 33.8238C10.3799 34.1147 11.7294 34.4145 13.1598 34.7821C14.5939 35.1249 16.1042 35.5515 17.6702 35.9924C18.0596 36.115 18.4552 36.2241 18.8533 36.3395L20.052 36.7142L20.3546 36.808C20.4563 36.8369 20.5579 36.8669 20.6585 36.9024L21.2667 37.1058C21.6723 37.2464 22.0878 37.3595 22.4961 37.5157C24.1452 38.0703 25.824 38.7025 27.5285 39.38C27.9552 39.5472 28.3853 39.7116 28.8121 39.8962L29.4551 40.1654C29.6698 40.2551 29.8855 40.3423 30.0978 40.4431L31.3871 41.0131C31.602 41.1099 31.8134 41.2175 32.0281 41.317L32.673 41.6166C33.106 41.8086 33.527 42.0352 33.9565 42.242L34.6002 42.5546C34.8153 42.6568 35.0253 42.7741 35.238 42.8829C35.6609 43.1068 36.0921 43.3145 36.5154 43.5373C36.935 43.767 37.3571 43.9926 37.7817 44.214C39.4604 45.1309 41.1282 46.0487 42.7367 46.99C43.1386 47.2246 43.5429 47.449 43.9379 47.6857C44.3348 47.9188 44.7249 48.154 45.1189 48.3782L47.4143 49.7354L48.5215 50.3996C48.8853 50.6187 49.2519 50.8245 49.6044 51.0398C50.3116 51.4683 51.003 51.8754 51.6707 52.2671C52.0006 52.4678 52.328 52.6605 52.6485 52.8491C52.8735 52.9825 53.0994 53.1147 53.3261 53.2455L53.6111 53.4319C53.7649 53.5294 53.9241 53.6166 54.0772 53.7073C54.7244 54.0855 55.3769 54.4557 56.0345 54.8178L56.1159 54.8591L56.9044 55.3083C57.3503 55.5607 57.7992 55.8086 58.2508 56.0519C59.0682 56.5 59.7208 56.8464 60.1733 57.0758C60.6259 57.3054 60.8746 57.4218 60.8746 57.4218L60.9088 57.4379C61.1724 57.5598 61.4629 57.6218 61.7568 57.619C62.0507 57.6162 62.3397 57.5486 62.6007 57.4217C63.5224 56.9742 63.8827 55.9108 63.4061 55.0463Z" fill="#009E83"/>
<path d="M52.5407 35.6718C52.0195 35.8145 51.4775 35.8793 50.9348 35.8636C50.6565 35.8555 50.5252 36.1804 50.7352 36.3518C51.1034 36.6528 51.4243 37.0011 51.6884 37.3866C51.7181 37.4281 51.7466 37.4701 51.7737 37.5121C53.2503 39.8129 51.3088 41.0078 48.8572 42.3936C46.4056 43.7793 44.3722 44.8309 42.8956 42.5302C42.8657 42.4836 42.8368 42.4366 42.8086 42.389C42.7014 42.2077 42.4275 42.2043 42.3036 42.3761L42.3006 42.3802C42.2714 42.4223 42.2415 42.4633 42.2108 42.5032C40.5336 44.6795 38.6015 43.4713 36.2825 41.8975C33.9634 40.3235 32.1357 38.9798 33.8129 36.8036C33.9999 36.5609 34.2103 36.3349 34.4417 36.1286C34.6227 35.9671 34.5225 35.6809 34.2747 35.6522C34.0105 35.6216 33.7491 35.5719 33.4929 35.5037C33.4418 35.4911 33.3909 35.4773 33.3405 35.4623C30.6117 34.6524 31.2263 32.5512 32.0894 29.9904C32.9524 27.4296 33.7368 25.3789 36.4656 26.1888C36.8149 26.2923 37.1515 26.4303 37.4698 26.6006C37.6917 26.7194 37.956 26.5326 37.9028 26.298C37.838 26.012 37.8008 25.7211 37.7916 25.4288C37.7889 25.3787 37.7875 25.3291 37.7875 25.2799C37.7875 22.5941 40.1076 22.5104 42.9695 22.5104C45.8314 22.5104 48.1515 22.5941 48.1515 25.2799C48.1515 25.7099 48.0918 26.1268 47.9799 26.5239C47.9115 26.767 48.1876 26.9666 48.4172 26.8371C48.7564 26.646 49.1178 26.4918 49.4944 26.3776C49.5449 26.3613 49.5953 26.3462 49.6457 26.3323C52.3937 25.5821 53.1273 27.6494 53.9267 30.2284C54.7264 32.8076 55.2888 34.9215 52.5407 35.6718ZM38.5666 12.3941C37.8876 10.2034 37.2645 8.44731 34.9301 9.08459C34.8873 9.09627 34.8445 9.10913 34.8016 9.12295C34.4817 9.21998 34.1747 9.35093 33.8865 9.51326C33.6914 9.62335 33.4569 9.45369 33.515 9.24722C33.612 8.90233 33.6609 8.54712 33.6607 8.19044C33.6607 5.9089 31.6898 5.83789 29.2588 5.83789C26.8277 5.83789 24.857 5.9089 24.857 8.19044C24.857 8.23226 24.8581 8.27444 24.8604 8.31697C24.8682 8.56523 24.8999 8.81233 24.9548 9.05528C25 9.25449 24.7755 9.41318 24.5869 9.31227C24.3166 9.16767 24.0307 9.05041 23.7339 8.96247C21.416 8.27455 20.7495 10.0165 20.0165 12.1918C19.2835 14.367 18.7613 16.1519 21.0792 16.8399C21.1216 16.8526 21.1648 16.8641 21.2087 16.875C21.4296 16.9337 21.6514 16.9755 21.8728 17.0011C22.0833 17.0256 22.1683 17.2687 22.0146 17.4057C21.8181 17.581 21.6392 17.7729 21.4804 17.9792C20.0557 19.8279 21.6084 20.9692 23.5783 22.3062C25.5482 23.6432 27.1895 24.6695 28.6141 22.8208C28.6414 22.7854 28.6677 22.7494 28.693 22.7127C28.7982 22.5668 29.0308 22.5696 29.122 22.7238C29.1457 22.7641 29.1703 22.804 29.1958 22.8438C30.4501 24.7982 32.1775 23.9049 34.26 22.7277C36.3425 21.5506 37.9918 20.5356 36.7375 18.5812C36.7145 18.5454 36.6903 18.5098 36.665 18.4744C36.4407 18.147 36.1681 17.8511 35.8553 17.5954C35.6769 17.4497 35.7885 17.1738 36.0249 17.1807C36.4744 17.1938 36.9338 17.142 37.389 17.0177C39.7234 16.3805 39.2456 14.5847 38.5666 12.3941Z" fill="#D77D9C"/>
<path d="M48.7981 32.0982L48.7901 32.1236C48.785 32.141 48.7768 32.165 48.7652 32.194L48.7233 32.3035C48.7056 32.3431 48.686 32.391 48.6619 32.4393C48.638 32.4879 48.6117 32.5422 48.581 32.5957C48.5513 32.6521 48.5172 32.7075 48.4803 32.7662C48.4024 32.8912 48.3151 33.0108 48.2192 33.1242C48.0184 33.3623 47.7641 33.589 47.4673 33.769C47.319 33.8596 47.1594 33.9365 46.9932 34.0045C46.8258 34.074 46.6558 34.1377 46.4834 34.1954C46.342 34.2421 46.1991 34.2845 46.0548 34.3224C46.1348 34.4406 46.2127 34.5609 46.2848 34.6847C46.3727 34.8354 46.4546 34.9891 46.5303 35.1454C46.6063 35.3 46.6709 35.4571 46.7175 35.6172C46.8117 35.937 46.8407 36.265 46.8221 36.5681C46.8134 36.7127 46.7938 36.8565 46.7634 36.9984C46.7493 37.0651 46.7355 37.1279 46.7178 37.1886C46.703 37.2477 46.6839 37.3046 46.6674 37.3559C46.6512 37.4068 46.6319 37.4549 46.617 37.4956L46.5707 37.6034C46.5614 37.6266 46.5509 37.6493 46.5393 37.6716L46.5274 37.6956C46.2447 38.2617 45.6038 38.5631 44.9772 38.4763L44.9493 38.4723C44.9231 38.469 44.8972 38.4646 44.8714 38.4591L44.7501 38.4357C44.7056 38.4248 44.6524 38.4133 44.5982 38.3979C44.5436 38.3825 44.4826 38.3658 44.4218 38.3448C44.3582 38.3252 44.2948 38.3012 44.2278 38.2754C44.085 38.2206 43.9465 38.1564 43.8133 38.0833C43.5339 37.9303 43.2588 37.7261 43.0269 37.4757C42.9104 37.3509 42.8067 37.2134 42.7115 37.0685C42.6845 37.0282 42.659 36.9866 42.633 36.9454C42.5999 36.9818 42.5674 37.0188 42.5335 37.0542C42.4135 37.1818 42.2865 37.3008 42.1492 37.4055C41.8756 37.6156 41.5677 37.7732 41.2648 37.8797C41.1205 37.9307 40.9724 37.972 40.8218 38.0033C40.7509 38.0182 40.6843 38.0317 40.618 38.0409C40.5544 38.052 40.4912 38.0588 40.4346 38.0652C40.3783 38.0719 40.3237 38.0747 40.278 38.0784L40.1541 38.0823C40.1211 38.0838 40.0943 38.0838 40.075 38.083L40.0467 38.0824C39.3808 38.0686 38.8278 37.6402 38.6592 37.0672L38.6517 37.0416C38.6444 37.0178 38.6382 36.9938 38.6332 36.9695L38.6069 36.8558C38.5997 36.8133 38.5893 36.763 38.5824 36.7101C38.5753 36.6571 38.5669 36.5979 38.5629 36.5372C38.5568 36.4725 38.5532 36.4076 38.5521 36.3427C38.5477 36.1979 38.5543 36.0531 38.5718 35.9092C38.608 35.6076 38.6958 35.2889 38.8461 34.9886C38.9208 34.8382 39.0128 34.6935 39.1155 34.5533C39.1438 34.5139 39.1742 34.4752 39.2036 34.4362C39.1547 34.4225 39.1055 34.4095 39.0574 34.3947C38.8845 34.3434 38.7171 34.2825 38.5597 34.207C38.2444 34.0571 37.9663 33.8565 37.7401 33.6395C37.6321 33.5361 37.532 33.4257 37.4405 33.3091C37.3975 33.2543 37.3572 33.2026 37.3214 33.1495C37.2848 33.0993 37.2527 33.0478 37.2235 33.0019C37.1943 32.9562 37.1694 32.9106 37.1474 32.8728L37.0935 32.7681C37.0815 32.7461 37.0707 32.7235 37.0609 32.7006L37.0501 32.676C36.7944 32.0988 36.9883 31.4511 37.4787 31.0748L37.5005 31.058C37.5151 31.0462 37.5363 31.0307 37.5634 31.0128L37.6635 30.9443C37.702 30.9208 37.7468 30.8916 37.7957 30.8644C37.8446 30.8368 37.8988 30.8056 37.9563 30.7776C38.0146 30.7466 38.076 30.7189 38.1417 30.6897C38.281 30.6275 38.4248 30.5746 38.572 30.5314C38.8808 30.4405 39.2267 30.387 39.5802 30.3947C39.757 30.3979 39.9351 30.4185 40.1134 30.45C40.2837 30.4786 40.4547 30.515 40.6249 30.5555L40.6233 30.5352C40.6149 30.3636 40.6132 30.1917 40.6184 30.02C40.6224 29.8499 40.6379 29.6821 40.6711 29.519C40.7361 29.1929 40.8634 28.8863 41.022 28.6217C41.0974 28.4954 41.1823 28.3743 41.276 28.2592C41.3199 28.205 41.3617 28.1544 41.406 28.1072C41.447 28.0603 41.4908 28.0169 41.5295 27.9777C41.568 27.9386 41.6077 27.9035 41.6401 27.873L41.7321 27.7952C41.7514 27.7782 41.7714 27.7621 41.7922 27.7468L41.8142 27.7301C42.333 27.3382 43.0499 27.3314 43.5722 27.6677L43.5954 27.6827C43.6116 27.6926 43.6334 27.7074 43.6592 27.7267L43.7573 27.7977C43.7921 27.8258 43.8345 27.858 43.876 27.8943C43.9179 27.9306 43.965 27.9708 44.0097 28.0146C44.0577 28.0585 44.1034 28.1061 44.1515 28.157C44.2485 28.2588 44.3445 28.3741 44.434 28.5004C44.6135 28.7529 44.765 29.0498 44.8561 29.3703C44.9023 29.5306 44.9311 29.6968 44.9489 29.8662C44.9665 30.0262 44.9781 30.1868 44.9837 30.3476C45.1548 30.2874 45.3283 30.233 45.5038 30.1848C45.6775 30.1361 45.8524 30.0982 46.0279 30.0776C46.3785 30.0353 46.7285 30.0544 47.0456 30.1146C47.2042 30.1445 47.3541 30.1842 47.4912 30.2298C47.5597 30.2523 47.6239 30.274 47.6854 30.299C47.7457 30.3212 47.803 30.3469 47.8547 30.3694C47.9062 30.3917 47.9541 30.4164 47.995 30.4359L48.1023 30.4942C48.1311 30.5093 48.1539 30.5227 48.1697 30.5329L48.1933 30.5474C48.7507 30.8903 48.9784 31.5283 48.7981 32.0982ZM33.6964 12.6652L33.6763 12.6528C33.6577 12.641 33.6386 12.63 33.6189 12.6199L33.5279 12.5704C33.4931 12.5539 33.4525 12.5329 33.4087 12.514C33.3648 12.4948 33.316 12.473 33.2649 12.4542C33.2107 12.4327 33.1557 12.413 33.1 12.3953C32.9764 12.3543 32.8499 12.3216 32.7214 12.2974C32.4369 12.2429 32.1449 12.2323 31.8568 12.2659C31.706 12.2847 31.5571 12.3151 31.4116 12.3569C31.2626 12.3979 31.1152 12.4441 30.9698 12.4953C30.965 12.3586 30.9552 12.2222 30.9402 12.0863C30.9264 11.9441 30.9 11.8032 30.8614 11.6651C30.7841 11.3929 30.6552 11.1408 30.5029 10.9261C30.4304 10.8236 30.3502 10.7261 30.2629 10.6344C30.2243 10.5927 30.1842 10.5524 30.1425 10.5135C30.1045 10.4762 30.0645 10.442 30.029 10.4113C29.9937 10.3804 29.9576 10.3531 29.928 10.3292L29.8448 10.2688C29.8273 10.2556 29.8093 10.2431 29.7907 10.2315C29.7841 10.2272 29.7775 10.223 29.7709 10.2187C29.3272 9.93302 28.7182 9.93874 28.2775 10.2717L28.2589 10.2859C28.2459 10.2952 28.2284 10.309 28.2078 10.327L28.1296 10.3931C28.1021 10.419 28.0683 10.4489 28.0357 10.4821C28.0027 10.5154 27.9656 10.5522 27.9307 10.5921C27.8931 10.6321 27.8576 10.6751 27.8202 10.7213C27.7407 10.819 27.6686 10.9219 27.6044 11.0291C27.4697 11.2539 27.3616 11.5144 27.3063 11.7914C27.2789 11.9318 27.2639 12.0742 27.2615 12.2169C27.2572 12.3628 27.2586 12.5088 27.2657 12.6546C27.266 12.6604 27.2667 12.6661 27.267 12.6718C27.1233 12.6371 26.9784 12.6072 26.8325 12.5821C26.6832 12.5547 26.5317 12.539 26.3796 12.5352C26.0893 12.53 25.8001 12.5692 25.5233 12.6512C25.3982 12.6879 25.276 12.7328 25.1576 12.7857C25.1019 12.8105 25.0497 12.8341 25.0002 12.8604C24.9514 12.8843 24.9053 12.9107 24.8639 12.9341C24.8225 12.9572 24.7844 12.9821 24.7517 13.002L24.6666 13.0601C24.6482 13.0721 24.6304 13.0849 24.6133 13.0985L24.5947 13.1128C24.1782 13.4324 24.0134 13.9827 24.2306 14.473L24.2399 14.4938C24.2459 14.5081 24.255 14.5277 24.2676 14.5513L24.3133 14.6403C24.3321 14.6723 24.3531 14.7112 24.378 14.7499C24.4028 14.789 24.4301 14.8327 24.4612 14.8752C24.4915 14.9202 24.5257 14.9643 24.5624 15.0108C24.64 15.1099 24.7251 15.2037 24.8169 15.2915C25.0196 15.4865 25.2548 15.6493 25.5131 15.7735C25.6469 15.8378 25.7891 15.8895 25.9359 15.9331C25.9768 15.9456 26.0186 15.9567 26.0602 15.9683C26.035 16.0014 26.0094 16.0343 25.9853 16.0678C25.898 16.187 25.8198 16.3098 25.7565 16.4376C25.6341 16.6847 25.5554 16.9488 25.5234 17.2195C25.5085 17.3417 25.5029 17.4648 25.5066 17.5877C25.5083 17.6455 25.5102 17.6999 25.5158 17.7531C25.5192 17.8045 25.5263 17.8548 25.5324 17.9C25.5383 17.9449 25.547 17.9876 25.5532 18.0237L25.5756 18.1202C25.581 18.1461 25.5866 18.1668 25.5913 18.1815L25.5977 18.2032C25.7409 18.69 26.2106 19.0537 26.7762 19.0655L26.8002 19.066C26.8165 19.0667 26.8393 19.0667 26.8673 19.0654L26.9726 19.0622C27.0114 19.059 27.0578 19.0566 27.1055 19.051C27.1536 19.0455 27.2072 19.0398 27.2613 19.0304C27.3175 19.0225 27.3741 19.0109 27.4343 18.9983C27.5623 18.9717 27.688 18.9367 27.8107 18.8933C28.0828 18.7982 28.3365 18.6622 28.562 18.4905C28.6787 18.4017 28.7865 18.3005 28.8884 18.1921C28.9171 18.1621 28.9449 18.1306 28.973 18.0996C28.9951 18.1345 29.0168 18.1699 29.0396 18.2041C29.1205 18.3271 29.2086 18.444 29.3076 18.55C29.5045 18.7628 29.7381 18.9361 29.9755 19.0661C30.0886 19.1282 30.2063 19.1828 30.3276 19.2293C30.3846 19.2514 30.4384 19.2716 30.4923 19.2883C30.5439 19.3062 30.5958 19.3203 30.6422 19.3333C30.6882 19.3466 30.7334 19.3562 30.7711 19.3655L30.8742 19.3854C30.9016 19.3911 30.9241 19.3947 30.9404 19.3966L30.9641 19.3999C31.4964 19.4738 32.0409 19.2177 32.281 18.7369L32.2911 18.7165C32.2984 18.7028 32.3076 18.6832 32.3177 18.6586L32.357 18.567C32.3696 18.5325 32.386 18.4917 32.3998 18.4484C32.4139 18.4049 32.43 18.3565 32.4426 18.3062C32.4577 18.2548 32.4694 18.2015 32.4813 18.1448C32.5058 18.0311 32.5233 17.9079 32.5311 17.7793C32.547 17.5218 32.5222 17.2431 32.4422 16.9716C32.4011 16.8341 32.348 16.7001 32.2833 16.5708C32.2189 16.438 32.1493 16.3075 32.0747 16.1794C32.0131 16.0749 31.948 15.9723 31.8793 15.8717C32.0019 15.8395 32.1233 15.8035 32.2434 15.7639C32.3899 15.7148 32.5344 15.6608 32.6766 15.6017C32.8165 15.5456 32.9512 15.4786 33.0793 15.4016C33.3315 15.2487 33.5475 15.0561 33.7181 14.8539C33.7996 14.7576 33.8737 14.656 33.9399 14.5498C33.9711 14.5 34.0002 14.4529 34.0253 14.4051C34.0515 14.3597 34.0737 14.3135 34.094 14.2722C34.1144 14.2313 34.1311 14.1906 34.1462 14.1569L34.1817 14.064C34.1897 14.0444 34.1968 14.0244 34.2029 14.0042L34.2098 13.9826C34.363 13.4981 34.1697 12.9561 33.6964 12.6652Z" fill="white"/>
<path d="M45.0497 33.1609C45.0497 34.2372 44.12 35.1097 42.9731 35.1097C41.8262 35.1097 40.8966 34.2372 40.8966 33.1609C40.8966 32.0846 41.8262 31.2121 42.9731 31.2121C44.12 31.2121 45.0497 32.0847 45.0497 33.1609ZM29.2619 13.2295C28.2877 13.2295 27.4981 13.9707 27.4981 14.8848C27.4981 15.799 28.2878 16.5402 29.2619 16.5402C30.2362 16.5402 31.0258 15.799 31.0258 14.8848C31.0258 13.9707 30.2361 13.2295 29.2619 13.2295ZM29.5599 34.0062C28.7605 31.4273 28.0269 29.3599 25.2789 30.1102C25.2286 30.1239 25.1781 30.139 25.1276 30.1554C24.751 30.2696 24.3896 30.4238 24.0504 30.615C23.8207 30.7445 23.5446 30.5449 23.613 30.3018C23.7272 29.8958 23.7849 29.4776 23.7846 29.0577C23.7846 26.3719 21.4645 26.2883 18.6026 26.2883C15.7407 26.2883 13.4206 26.3719 13.4206 29.0577C13.4206 29.1069 13.422 29.1564 13.4247 29.2066C13.4342 29.5039 13.472 29.7943 13.5359 30.0759C13.5891 30.3103 13.3248 30.4973 13.1028 30.3785C12.7846 30.2083 12.4479 30.0702 12.0986 29.9666C9.36991 29.1567 8.58534 31.2075 7.72244 33.7683C6.85942 36.3291 6.24484 38.4302 8.97357 39.2402C9.02346 39.2549 9.07437 39.2687 9.12604 39.2815C9.38604 39.3506 9.64731 39.3999 9.90781 39.4301C10.1556 39.4588 10.2558 39.7449 10.0748 39.9064C9.8434 40.1127 9.6329 40.3387 9.44596 40.5814C7.76878 42.7578 9.59653 44.1014 11.9156 45.6753C14.2346 47.2491 16.1669 48.4573 17.8439 46.281C17.8746 46.2411 17.9045 46.2001 17.9337 46.1581L17.9367 46.1539C18.0606 45.9821 18.3345 45.9855 18.4417 46.1669C18.4698 46.2142 18.4987 46.2612 18.5287 46.3081C20.0053 48.6088 22.0387 47.5571 24.4903 46.1714C26.9419 44.7857 28.8834 43.5907 27.4068 41.29C27.3794 41.2475 27.351 41.2056 27.3215 41.1644C27.0574 40.779 26.7365 40.4306 26.3683 40.1297C26.1583 39.9581 26.2896 39.6332 26.5679 39.6414C27.0971 39.6569 27.6378 39.5959 28.1738 39.4496C30.9217 38.699 30.3592 36.5851 29.5599 34.0062Z" fill="#984F69"/>
<path d="M18.6019 39.6075C20.1381 39.6075 21.3834 38.4388 21.3834 36.9971C21.3834 35.5554 20.1381 34.3867 18.6019 34.3867C17.0657 34.3867 15.8203 35.5554 15.8203 36.9971C15.8203 38.4388 17.0657 39.6075 18.6019 39.6075Z" fill="#F8BBC6"/>
<path d="M23.8247 34.3245L23.8011 34.3099C23.7792 34.2961 23.7566 34.2831 23.7335 34.2712L23.6262 34.2129C23.5854 34.1934 23.5375 34.1687 23.486 34.1465C23.4343 34.1238 23.3769 34.0982 23.3166 34.076C23.2552 34.051 23.1909 34.0293 23.1225 34.0068C22.9771 33.9585 22.8281 33.92 22.6769 33.8916C22.3598 33.8315 22.0096 33.8123 21.6591 33.8546C21.4835 33.8752 21.3087 33.9131 21.1349 33.9618C20.9595 34.0101 20.786 34.0644 20.6148 34.1247C20.6092 33.9638 20.5976 33.8033 20.58 33.6432C20.5622 33.4739 20.5334 33.3076 20.4872 33.1473C20.3962 32.8269 20.2446 32.5301 20.0651 32.2774C19.9797 32.1568 19.8853 32.0421 19.7826 31.934C19.7372 31.885 19.6899 31.8375 19.6408 31.7916C19.5961 31.7477 19.549 31.7075 19.5071 31.6713C19.4656 31.635 19.4231 31.6028 19.3884 31.5747L19.2903 31.5037C19.2698 31.4881 19.2485 31.4735 19.2266 31.4597C19.2188 31.4547 19.2111 31.4497 19.2033 31.4447C18.681 31.1084 17.9641 31.115 17.4453 31.5071L17.4233 31.5238C17.4081 31.5348 17.3875 31.5511 17.3633 31.5722L17.2712 31.65C17.2388 31.6805 17.1991 31.7156 17.1606 31.7547C17.1218 31.7939 17.0781 31.8373 17.0371 31.8842C16.9928 31.9313 16.951 31.982 16.9071 32.0362C16.8134 32.1513 16.7285 32.2724 16.6531 32.3987C16.4945 32.6633 16.3672 32.9699 16.3022 33.296C16.2691 33.4591 16.2536 33.6269 16.2495 33.797C16.2444 33.9687 16.246 34.1406 16.2545 34.3122L16.256 34.3326C16.0869 34.2917 15.9163 34.2564 15.7445 34.227C15.5662 34.1955 15.3881 34.1751 15.2113 34.1717C14.8578 34.164 14.5119 34.2174 14.2031 34.3084C14.0489 34.3536 13.904 34.4077 13.7728 34.4667C13.7073 34.4959 13.6457 34.5237 13.5874 34.5546C13.5299 34.5826 13.4757 34.6137 13.4268 34.6414C13.3781 34.6685 13.3333 34.6978 13.2947 34.7213L13.1945 34.7898C13.1675 34.8077 13.1464 34.8232 13.1317 34.835L13.1098 34.8518C12.6194 35.2281 12.4255 35.8759 12.6812 36.453L12.692 36.4776C12.699 36.4944 12.7098 36.5175 12.7246 36.5451L12.7785 36.6498C12.8006 36.6876 12.8254 36.7332 12.8546 36.7789C12.8838 36.8249 12.916 36.8763 12.9525 36.9265C12.9883 36.9796 13.0284 37.0313 13.0716 37.0861C13.163 37.2028 13.2631 37.3132 13.3712 37.4165C13.5974 37.6336 13.8756 37.8341 14.1908 37.984C14.3484 38.0595 14.5157 38.1204 14.6885 38.1717C14.7366 38.1865 14.7859 38.1995 14.8347 38.2132C14.8052 38.2522 14.7749 38.2909 14.7466 38.3303C14.6439 38.4706 14.5519 38.6152 14.4772 38.7657C14.3268 39.0659 14.2391 39.3845 14.2029 39.6863C14.1854 39.8301 14.1789 39.975 14.1832 40.1197C14.1851 40.1877 14.1874 40.2518 14.194 40.3143C14.1981 40.3749 14.2064 40.4341 14.2136 40.4871C14.2204 40.54 14.2307 40.5903 14.2381 40.6328L14.2643 40.7465C14.2708 40.7769 14.2774 40.8013 14.2829 40.8187L14.2904 40.8443C14.459 41.4174 15.0118 41.8457 15.6778 41.8595L15.7061 41.8601C15.7253 41.8609 15.7522 41.8609 15.7852 41.8594L15.9091 41.8556C15.9548 41.8519 16.0094 41.849 16.0657 41.8424C16.1223 41.8359 16.1854 41.8291 16.2491 41.818C16.3175 41.8078 16.3855 41.7952 16.4529 41.7804C16.6035 41.7491 16.7516 41.7078 16.8959 41.6568C17.199 41.5503 17.5068 41.3927 17.7803 41.1827C17.9177 41.0781 18.0446 40.959 18.1645 40.8313C18.1984 40.7959 18.2309 40.7589 18.264 40.7225C18.29 40.7636 18.3155 40.8054 18.3425 40.8456C18.4377 40.9904 18.5414 41.1279 18.6579 41.2528C18.8897 41.5033 19.1647 41.7075 19.4443 41.8605C19.5839 41.9371 19.724 42.001 19.8588 42.0525C19.9259 42.0784 19.9892 42.1023 20.0528 42.122C20.1134 42.1431 20.1745 42.1597 20.2291 42.175C20.2833 42.1905 20.3366 42.2019 20.3809 42.2129L20.5023 42.2362C20.5345 42.2429 20.5611 42.2472 20.5801 42.2495L20.6081 42.2534C21.2347 42.3404 21.8757 42.0388 22.1583 41.4728L22.1702 41.4487C22.1787 41.4325 22.1896 41.4095 22.2016 41.3806L22.2479 41.2727C22.2628 41.232 22.2821 41.184 22.2983 41.133C22.3148 41.0818 22.3339 41.0248 22.3487 40.9657C22.3665 40.9052 22.3802 40.8424 22.3943 40.7756C22.4231 40.6418 22.4437 40.4968 22.4529 40.3452C22.4716 40.0421 22.4424 39.7141 22.3483 39.3944C22.3019 39.2342 22.2371 39.0771 22.1612 38.9226C22.0854 38.7662 22.0035 38.6125 21.9157 38.4619C21.8432 38.3388 21.7665 38.2179 21.6856 38.0995C21.8299 38.0616 21.9729 38.0192 22.1142 37.9725C22.2866 37.9148 22.4567 37.8512 22.6241 37.7817C22.7903 37.7136 22.95 37.6367 23.0981 37.5461C23.3951 37.3661 23.6492 37.1394 23.8501 36.9013C23.9461 36.788 24.0334 36.6684 24.1112 36.5433C24.148 36.4846 24.1822 36.4292 24.2119 36.3728C24.2426 36.3193 24.2689 36.265 24.2927 36.2164C24.3167 36.1682 24.3363 36.1204 24.3542 36.0806L24.3961 35.9711C24.4078 35.9421 24.4159 35.9181 24.421 35.9007L24.429 35.8753C24.6094 35.3051 24.3817 34.6671 23.8247 34.3245Z" fill="white"/>
<path d="M18.6039 38.8868C19.7508 38.8868 20.6805 38.0143 20.6805 36.938C20.6805 35.8618 19.7508 34.9893 18.6039 34.9893C17.4571 34.9893 16.5273 35.8618 16.5273 36.938C16.5273 38.0143 17.4571 38.8868 18.6039 38.8868Z" fill="#BF01FF"/>
</svg>
