<svg width="32" height="32" viewBox="0 0 32 32" fill="none" xmlns="http://www.w3.org/2000/svg">
<g clip-path="url(#clip0_1500_10625)">
<path d="M25.2902 19.8225C24.6351 19.1404 23.8449 18.7757 23.0075 18.7757C22.1767 18.7757 21.3798 19.1336 20.6977 19.8158L18.5634 21.9432C18.3878 21.8487 18.2122 21.7609 18.0434 21.6731C17.8003 21.5515 17.5706 21.4367 17.3748 21.3151C15.3756 20.0454 13.5589 18.3907 11.8164 16.2497C10.9722 15.1826 10.4048 14.2844 9.99285 13.3726C10.5467 12.8661 11.06 12.3393 11.5597 11.8327C11.7488 11.6436 11.9379 11.4478 12.1271 11.2587C13.5454 9.84036 13.5454 8.00332 12.1271 6.58502L10.2833 4.74122C10.0739 4.53185 9.85777 4.31573 9.65516 4.09961C9.24993 3.68087 8.82444 3.24863 8.38544 2.8434C7.73032 2.19503 6.94688 1.85059 6.12291 1.85059C5.29895 1.85059 4.50199 2.19503 3.82661 2.8434C3.81986 2.85015 3.81986 2.85015 3.81311 2.85691L1.51681 5.17347C0.652318 6.03796 0.15929 7.09155 0.0512285 8.314C-0.110863 10.2861 0.469965 12.1232 0.915717 13.3253C2.00984 16.2768 3.64426 19.0121 6.08239 21.9432C9.04056 25.4755 12.5998 28.2648 16.6656 30.2302C18.219 30.9663 20.2924 31.8376 22.609 31.9861C22.7508 31.9929 22.8994 31.9997 23.0345 31.9997C24.5946 31.9997 25.9048 31.4391 26.9314 30.3247C26.9382 30.3112 26.9517 30.3044 26.9584 30.2909C27.3096 29.8654 27.7149 29.4805 28.1404 29.0685C28.4308 28.7916 28.7279 28.5012 29.0184 28.1973C29.687 27.5016 30.0382 26.6912 30.0382 25.8604C30.0382 25.023 29.6802 24.2192 28.9981 23.5439L25.2902 19.8225ZM27.7081 26.9343C27.7014 26.9343 27.7014 26.941 27.7081 26.9343C27.4447 27.2179 27.1746 27.4746 26.8842 27.7583C26.4452 28.177 25.9994 28.616 25.5807 29.109C24.8985 29.8384 24.0948 30.1829 23.0412 30.1829C22.9399 30.1829 22.8319 30.1829 22.7306 30.1761C20.7247 30.0478 18.8606 29.2644 17.4626 28.5957C13.6399 26.7452 10.2833 24.1179 7.49394 20.7883C5.19088 18.0125 3.65101 15.446 2.63119 12.6905C2.00308 11.0088 1.77345 9.69853 1.87476 8.46258C1.9423 7.67238 2.24622 7.01726 2.80679 6.45669L5.10984 4.15364C5.44078 3.84296 5.79197 3.67412 6.13642 3.67412C6.56191 3.67412 6.90635 3.93076 7.12248 4.14689C7.12923 4.15364 7.13598 4.16039 7.14274 4.16715C7.55472 4.55212 7.94644 4.95059 8.35843 5.37608C8.56779 5.5922 8.78392 5.80833 9.00004 6.0312L10.8438 7.875C11.5597 8.5909 11.5597 9.25278 10.8438 9.96868C10.648 10.1645 10.4589 10.3604 10.263 10.5495C9.69568 11.1303 9.15538 11.6706 8.56779 12.1974C8.55429 12.211 8.54078 12.2177 8.53403 12.2312C7.9532 12.812 8.06126 13.3794 8.18283 13.7643C8.18958 13.7846 8.19633 13.8049 8.20309 13.8251C8.68261 14.9868 9.35799 16.0809 10.3846 17.3844L10.3913 17.3911C12.2554 19.6874 14.2207 21.4772 16.3887 22.8482C16.6656 23.0238 16.9493 23.1657 17.2194 23.3007C17.4626 23.4223 17.6922 23.5371 17.8881 23.6587C17.9151 23.6722 17.9421 23.6925 17.9691 23.706C18.1987 23.8208 18.4149 23.8748 18.6377 23.8748C19.1983 23.8748 19.5495 23.5236 19.6643 23.4088L21.9741 21.099C22.2038 20.8694 22.5685 20.5924 22.994 20.5924C23.4127 20.5924 23.7571 20.8558 23.9665 21.0855C23.9733 21.0922 23.9733 21.0922 23.98 21.099L27.7014 24.8203C28.397 25.5092 28.397 26.2184 27.7081 26.9343Z" fill="url(#paint0_linear_1500_10625)"/>
<path d="M17.2935 7.61243C19.063 7.9096 20.6704 8.74707 21.9536 10.0303C23.2368 11.3135 24.0676 12.9209 24.3715 14.6904C24.4458 15.1362 24.8307 15.4469 25.2697 15.4469C25.3238 15.4469 25.371 15.4401 25.4251 15.4334C25.9249 15.3523 26.2558 14.8795 26.1748 14.3798C25.81 12.2388 24.797 10.2869 23.2503 8.74032C21.7037 7.1937 19.7519 6.18062 17.6109 5.81592C17.1111 5.73487 16.6451 6.06581 16.5573 6.55884C16.4695 7.05187 16.7937 7.53139 17.2935 7.61243Z" fill="url(#paint1_linear_1500_10625)"/>
<path d="M31.9638 14.1159C31.3627 10.5904 29.7012 7.38232 27.1483 4.82937C24.5953 2.27643 21.3873 0.61499 17.8618 0.0139004C17.3687 -0.0738993 16.9027 0.263792 16.8149 0.756821C16.7339 1.2566 17.0648 1.72262 17.5646 1.81042C20.7119 2.34397 23.5823 3.83656 25.8651 6.1126C28.1478 8.39539 29.6337 11.2658 30.1672 14.413C30.2415 14.8588 30.6265 15.1695 31.0655 15.1695C31.1195 15.1695 31.1668 15.1627 31.2208 15.156C31.7139 15.0817 32.0516 14.6089 31.9638 14.1159Z" fill="url(#paint2_linear_1500_10625)"/>
</g>
<defs>
<linearGradient id="paint0_linear_1500_10625" x1="5.18222" y1="19.5093" x2="32.781" y2="9.17709" gradientUnits="userSpaceOnUse">
<stop stop-color="#C64783"/>
<stop offset="1" stop-color="#A21837"/>
</linearGradient>
<linearGradient id="paint1_linear_1500_10625" x1="18.2005" y1="11.4518" x2="27.0583" y2="8.12061" gradientUnits="userSpaceOnUse">
<stop stop-color="#C64783"/>
<stop offset="1" stop-color="#A21837"/>
</linearGradient>
<linearGradient id="paint2_linear_1500_10625" x1="19.4109" y1="8.88498" x2="33.3478" y2="3.64217" gradientUnits="userSpaceOnUse">
<stop stop-color="#C64783"/>
<stop offset="1" stop-color="#A21837"/>
</linearGradient>
<clipPath id="clip0_1500_10625">
<rect width="32" height="32" fill="white"/>
</clipPath>
</defs>
</svg>
